<?xml version="1.0" encoding="UTF-8" standalone="no"?>
<!-- Created with Inkscape (http://www.inkscape.org/) -->

<svg
   xmlns:dc="http://purl.org/dc/elements/1.1/"
   xmlns:cc="http://creativecommons.org/ns#"
   xmlns:rdf="http://www.w3.org/1999/02/22-rdf-syntax-ns#"
   xmlns:svg="http://www.w3.org/2000/svg"
   xmlns="http://www.w3.org/2000/svg"
   xmlns:sodipodi="http://sodipodi.sourceforge.net/DTD/sodipodi-0.dtd"
   xmlns:inkscape="http://www.inkscape.org/namespaces/inkscape"
   width="24"
   height="24"
   viewBox="0 0 6.3499999 6.3500002"
   version="1.1"
   id="svg8"
   inkscape:version="0.92.4 (5da689c313, 2019-01-14)"
   sodipodi:docname="front-end-ornament4.svg">
  <defs
     id="defs2" />
  <sodipodi:namedview
     id="base"
     pagecolor="#ffffff"
     bordercolor="#666666"
     borderopacity="1.0"
     inkscape:pageopacity="0.0"
     inkscape:pageshadow="2"
     inkscape:zoom="31.678384"
     inkscape:cx="9.0086879"
     inkscape:cy="11.903662"
     inkscape:document-units="mm"
     inkscape:current-layer="layer1"
     showgrid="false"
     units="px"
     inkscape:window-width="1920"
     inkscape:window-height="1001"
     inkscape:window-x="-9"
     inkscape:window-y="-9"
     inkscape:window-maximized="1" />
  <metadata
     id="metadata5">
    <rdf:RDF>
      <cc:Work
         rdf:about="">
        <dc:format>image/svg+xml</dc:format>
        <dc:type
           rdf:resource="http://purl.org/dc/dcmitype/StillImage" />
        <dc:title></dc:title>
      </cc:Work>
    </rdf:RDF>
  </metadata>
  <g
     inkscape:label="Layer 1"
     inkscape:groupmode="layer"
     id="layer1"
     transform="translate(0,-290.64998)">
    <path
       style="opacity:1;fill:none;fill-opacity:1;stroke:#000000;stroke-width:0.03546907;stroke-linejoin:miter;stroke-miterlimit:4;stroke-dasharray:none"
       id="path815"
       d="m 5.9648404,290.90494 c 0.00657,-0.003 -0.045749,0.0256 -0.034424,0.019 0.1160132,-0.0676 0.1036281,-0.0604 0.06162,-0.0339 -0.00786,0.005 -0.015658,0.01 -0.023574,0.0149 -0.00813,0.005 -0.016375,0.01 -0.024564,0.0147 -0.058159,0.0339 -0.068194,0.0399 -0.1546995,0.0891 -0.00921,0.005 -0.037079,0.0205 -0.027921,0.0152 0.1579586,-0.0919 0.041379,-0.0221 0.00983,-0.003 -0.104653,0.0637 -0.2090396,0.12836 -0.3190327,0.18264 -0.1017958,0.0473 -0.2064231,0.0879 -0.3104303,0.12992 -0.1231442,0.0474 -0.2452275,0.0981 -0.370514,0.13975 -0.027539,0.009 -0.0554,0.0173 -0.0831,0.026 -0.1467458,0.0464 -0.296378,0.0818 -0.4463203,0.1159 -0.086306,0.0197 -0.1730917,0.0377 -0.2611546,0.0475 -0.055937,0.006 -0.081503,0.007 -0.1380961,0.0105 -0.1371552,0.005 -0.2746481,0.009 -0.4118634,0.004 -0.031322,-10e-4 -0.062601,-0.003 -0.093902,-0.005 -0.1544423,-0.013 -0.3081269,-0.0344 -0.4601798,-0.0643 -0.079834,-0.017 -0.1579186,-0.0401 -0.2342157,-0.0688 -0.044746,-0.018 -0.089653,-0.0351 -0.1371333,-0.0442 -0.020418,-0.003 -0.010502,-0.002 -0.029738,-0.004 0,0 0.1003215,-0.0711 0.1003215,-0.0711 v 0 c 0.019296,0.003 0.00935,10e-4 0.029822,0.005 0.047062,0.0109 0.091616,0.0291 0.1363871,0.047 0.074788,0.0285 0.1511057,0.0525 0.229339,0.0698 0.1499188,0.0315 0.3017449,0.0539 0.4544854,0.0663 0.031333,0.001 0.062647,0.003 0.094,0.004 0.1380038,0.004 0.2762398,-10e-4 0.4141182,-0.007 0.058256,-0.004 0.080853,-0.005 0.1383384,-0.0116 0.08763,-0.0104 0.1740331,-0.0285 0.2600227,-0.0479 0.1489956,-0.0337 0.2976925,-0.0686 0.4434446,-0.11485 0.027659,-0.009 0.055476,-0.0171 0.082977,-0.0264 0.1259874,-0.0425 0.248843,-0.0938 0.3726384,-0.14205 0.1048998,-0.0427 0.2103522,-0.0843 0.3127388,-0.13289 0.01351,-0.007 0.05248,-0.0297 0.040527,-0.0204 -0.019121,0.0148 -0.041723,0.0246 -0.062287,0.0373 -0.011845,0.007 0.024141,-0.0139 0.036125,-0.0211 0.034127,-0.0203 0.067527,-0.0418 0.1017334,-0.0619 0.064334,-0.0398 0.1287809,-0.0776 0.1945489,-0.11556 0.00924,-0.005 0.03717,-0.0209 0.028013,-0.0155 -0.025313,0.0151 -0.050999,0.0296 -0.076494,0.0444 -0.00838,0.005 0.016775,-0.01 0.025162,-0.0146 0.023466,-0.0137 0.045837,-0.0291 0.069187,-0.0429 0.053238,-0.0315 0.1066665,-0.0623 0.1604336,-0.0928 0,0 -0.096169,0.0776 -0.096169,0.0776 z"
       inkscape:connector-curvature="0" />
    <path
       style="opacity:1;fill:none;fill-opacity:1;stroke:#000000;stroke-width:0.03546907;stroke-linejoin:miter;stroke-miterlimit:4;stroke-dasharray:none"
       id="path817"
       d="m 6.2313817,291.06182 c -0.024042,0.0331 -0.049612,0.0651 -0.075215,0.097 -0.030398,0.0377 -0.060555,0.0756 -0.09119,0.11306 -0.035705,0.041 -0.073484,0.0801 -0.1085432,0.12174 -0.036127,0.0414 -0.076602,0.0787 -0.1177311,0.11504 -0.058433,0.0529 -0.1224282,0.0987 -0.1879925,0.1422 -0.08456,0.0505 -0.1667008,0.1046 -0.2463657,0.16251 -0.066435,0.0529 -0.1352675,0.10257 -0.2042261,0.15209 -0.010144,0.007 -0.020293,0.0148 -0.03043,0.0222 -0.029211,0.0214 -0.058317,0.0429 -0.088889,0.0623 -0.041413,0.0263 -0.1652833,0.0957 -0.1662641,0.0963 -0.011446,0.006 -0.022884,0.0117 -0.034335,0.0175 -0.011957,0.006 -0.024069,0.0119 -0.035889,0.0182 -0.012245,0.007 -0.048422,0.0273 -0.036282,0.0206 0.021638,-0.0121 0.04258,-0.0254 0.064772,-0.0364 0.012626,-0.006 -0.024037,0.0147 -0.036004,0.0222 -0.012589,0.008 -0.025109,0.0158 -0.037664,0.0236 -0.091963,0.0548 -0.00839,0.005 -0.1824429,0.10536 -0.019301,0.0111 0.038211,-0.0229 0.058051,-0.033 0.014949,-0.008 -0.028811,0.0172 -0.043354,0.0255 -0.1375463,0.079 -0.1025819,0.0596 -0.1895692,0.10687 -0.083164,0.0465 -0.1681591,0.0891 -0.2545057,0.12925 -0.08348,0.0401 -0.1706406,0.0714 -0.2563563,0.10618 -0.014428,0.006 -0.028953,0.0114 -0.043279,0.0174 -0.1355419,0.0572 0.049809,-0.0191 -0.091232,0.0397 -0.051881,0.0216 -0.1044429,0.0414 -0.1571572,0.0608 -0.1164008,0.0468 -0.2377972,0.0785 -0.3590644,0.10967 -0.1318681,0.0288 -0.2641164,0.0559 -0.3961593,0.084 -0.1065705,0.0195 -0.2119985,0.0445 -0.3182361,0.0656 -0.073774,0.0147 -0.09366,0.0176 -0.1675959,0.0305 -0.1522823,0.027 -0.304031,0.0564 -0.455479,0.0877 -0.1230783,0.0274 -0.24685,0.0515 -0.3707137,0.0751 -0.085171,0.0154 -0.169249,0.0364 -0.2547258,0.0501 -0.061184,0.009 -0.1230596,0.0117 -0.1848376,0.0128 -0.059529,1.3e-4 -0.117617,0.0126 -0.17544945,0.0252 -0.0497035,0.011 -0.0993338,0.0221 -0.14969704,0.0296 -0.005363,6.7e-4 -0.0107267,0.001 -0.0160904,0.002 0,0 0.0983331,-0.0733 0.0983331,-0.0733 v 0 c 0.005175,-6.4e-4 0.0103494,-10e-4 0.0155242,-0.002 0.0498185,-0.007 0.0989189,-0.0184 0.14806989,-0.0293 0.058306,-0.0122 0.1170012,-0.0232 0.1768413,-0.0234 0.061026,-0.001 0.1221506,-0.004 0.1825475,-0.0132 0.084472,-0.0141 0.1678831,-0.0338 0.2522386,-0.0486 0.1230597,-0.0229 0.2459554,-0.0466 0.3682275,-0.0734 0.1509805,-0.0309 0.3022834,-0.0597 0.4540927,-0.0863 0.1631499,-0.0285 0.3246989,-0.0645 0.4869713,-0.0975 0.132383,-0.0287 0.2651538,-0.0557 0.3972888,-0.0854 0.1213144,-0.0315 0.2425287,-0.0639 0.3589155,-0.11106 0.098898,-0.0371 0.1959644,-0.0783 0.2931888,-0.1195 0.08571,-0.0344 0.1724839,-0.0663 0.2557597,-0.10651 0.085989,-0.0403 0.1704951,-0.0833 0.2535558,-0.12941 0.074988,-0.0409 0.04538,-0.0255 -0.010573,0.008 -0.01429,0.009 0.028732,-0.0171 0.043167,-0.0255 0.04747,-0.0277 0.094925,-0.0554 0.1425482,-0.0828 0.00212,-10e-4 -0.1279332,0.0752 -0.018754,0.011 0.1033812,-0.0655 0.2085684,-0.12831 0.3180133,-0.18316 -0.02308,0.0135 -0.046136,0.0271 -0.069237,0.0406 -0.010583,0.006 0.021265,-0.0122 0.031685,-0.0187 0.041544,-0.0257 0.080402,-0.0554 0.1198338,-0.0842 0.069345,-0.05 0.139483,-0.0988 0.2059318,-0.15267 0.079261,-0.0583 0.1609606,-0.11294 0.2457656,-0.16288 0.064891,-0.0426 0.1283782,-0.0874 0.1859754,-0.13965 0.041141,-0.0358 0.081255,-0.0731 0.1182351,-0.11321 0.03454,-0.0419 0.071803,-0.0813 0.1082599,-0.12147 0.0304,-0.0374 0.060547,-0.075 0.090624,-0.11275 0.025323,-0.0313 0.051129,-0.0624 0.073578,-0.0958 0,0 0.1135365,-0.0489 0.1135365,-0.0489 z"
       inkscape:connector-curvature="0" />
    <path
       style="opacity:1;fill:none;fill-opacity:1;stroke:#000000;stroke-width:0.03546907;stroke-linejoin:miter;stroke-miterlimit:4;stroke-dasharray:none"
       id="path819"
       d="m 6.1914566,291.78669 c -0.019082,0.0363 -0.041122,0.0707 -0.0649,0.104 -0.029883,0.0419 -0.062287,0.082 -0.095573,0.12123 -0.047477,0.0553 -0.1037842,0.1013 -0.1624479,0.14409 -0.067911,0.0487 -0.1403627,0.0903 -0.2122588,0.13276 -0.066689,0.0384 -0.1304237,0.0816 -0.1961324,0.1216 -0.073336,0.0426 -0.1429898,0.0909 -0.2120598,0.13997 -0.098014,0.0662 -0.1979115,0.12973 -0.2991398,0.19093 -0.1317323,0.0796 -0.2640393,0.15822 -0.3964736,0.23665 -0.153661,0.0881 -0.305508,0.17929 -0.4579385,0.26948 -0.091806,0.0537 -0.1803529,0.1129 -0.2722803,0.16641 -0.046721,0.0272 -0.093657,0.054 -0.1404863,0.081 -0.012245,0.007 -0.04894,0.0279 -0.036738,0.0208 0.023117,-0.0133 0.046045,-0.0269 0.069479,-0.0397 0.00992,-0.005 -0.019286,0.0118 -0.028926,0.0176 -0.00935,0.006 -0.018592,0.0116 -0.028049,0.0171 -0.1194334,0.0698 -0.090008,0.0534 -0.1574926,0.0902 -0.069194,0.037 -0.141431,0.0677 -0.2139733,0.0974 -0.085079,0.0305 -0.1691807,0.0636 -0.2531039,0.0971 -0.07846,0.0306 -0.1567905,0.0615 -0.234746,0.0933 -0.083587,0.0348 -0.1688439,0.0652 -0.2528367,0.099 -0.076364,0.0332 -0.1532269,0.0651 -0.2304485,0.0962 -0.068456,0.0294 -0.1392741,0.0524 -0.2066641,0.0843 -0.031125,0.0162 -0.062248,0.0325 -0.092852,0.0498 -0.010481,0.006 -0.041645,0.0241 -0.031218,0.0181 0.023429,-0.0135 0.046751,-0.0271 0.070224,-0.0405 0.011175,-0.006 -0.022219,0.013 -0.033329,0.0195 -0.066941,0.0402 -0.1321957,0.083 -0.1983614,0.12446 -0.081331,0.0482 0.013771,-0.008 -0.1622746,0.0934 -0.023881,0.0138 0.047632,-0.0278 0.071875,-0.0409 0.010619,-0.006 -0.02068,0.0125 -0.030985,0.0188 -0.026995,0.0165 -0.033404,0.0206 -0.060037,0.0373 -0.054206,0.0329 -0.1088827,0.0649 -0.162462,0.0988 -0.042962,0.0254 -0.084307,0.0533 -0.1233475,0.0844 -0.029943,0.0241 -0.063009,0.0439 -0.094957,0.0651 -0.027419,0.0186 -0.055581,0.0358 -0.081738,0.0562 -0.028584,0.0237 -0.056575,0.0481 -0.085191,0.0718 -0.029947,0.0268 -0.060793,0.0526 -0.092186,0.0777 -0.0399259,0.0301 -0.0786591,0.0617 -0.11765554,0.093 -0.0454156,0.0344 -0.0883719,0.0719 -0.13278527,0.10753 -0.039751,0.0285 -0.0746041,0.0624 -0.10698032,0.0989 -0.0274154,0.0341 -0.0576193,0.0657 -0.0851943,0.0996 -0.0279065,0.0372 -0.055342,0.0746 -0.084738,0.11062 -0.0271851,0.036 -0.0498707,0.0753 -0.0734624,0.11373 -0.02281,0.0342 -0.0414314,0.0708 -0.0620985,0.10624 -0.0175072,0.0309 -0.0359614,0.0612 -0.054178,0.0917 -0.0149751,0.0234 -0.0299536,0.0467 -0.0428347,0.0713 -0.0122531,0.0203 -0.0236705,0.0404 -0.0315673,0.0628 -0.003195,0.0113 -0.007061,0.0222 -0.0113158,0.0331 0,0 -0.11211973,0.0515 -0.11211973,0.0515 v 0 c 0.0048506,-0.0104 0.0093322,-0.021 0.01178505,-0.0323 0.0075675,-0.0232 0.01651815,-0.0447 0.03094196,-0.0646 0.0129763,-0.0249 0.0266501,-0.0494 0.0432479,-0.0722 0.0180202,-0.0307 0.037151,-0.0607 0.0544674,-0.0918 0.0214476,-0.0352 0.0391132,-0.0725 0.0625141,-0.10653 0.023354,-0.039 0.0471125,-0.078 0.0730381,-0.1154 0.0293974,-0.0359 0.0574383,-0.0728 0.084667,-0.11038 0.0267447,-0.0347 0.0575656,-0.0658 0.0847901,-0.10014 0.0323607,-0.0372 0.0665152,-0.0728 0.10713643,-0.10124 0.0444496,-0.0355 0.0872172,-0.0729 0.13243962,-0.10739 0.0388888,-0.031 0.0770851,-0.063 0.116962,-0.0927 0.03137,-0.0248 0.062367,-0.0501 0.0918345,-0.0772 0.0281457,-0.0242 0.0573048,-0.0472 0.0848811,-0.0721 0.0091,-0.007 0.017827,-0.015 0.027185,-0.0219 0.017352,-0.0128 0.037142,-0.022 0.054291,-0.0351 0.031288,-0.0225 0.065552,-0.0407 0.095885,-0.0646 0.039095,-0.0319 0.080341,-0.061 0.1240935,-0.0862 0.053715,-0.0343 0.1084651,-0.0667 0.1632461,-0.0992 0.07365,-0.0463 0.148196,-0.0899 0.223627,-0.13349 0.024171,-0.014 -0.048239,0.0281 -0.072281,0.0423 -0.010059,0.006 0.02022,-0.0117 0.03033,-0.0176 0.066445,-0.0412 0.1318006,-0.0841 0.1985153,-0.12488 0.096137,-0.0564 0.1919035,-0.11383 0.2916222,-0.16378 0.067663,-0.0307 0.138182,-0.0541 0.2064784,-0.0833 0.077126,-0.031 0.1536358,-0.0634 0.230126,-0.0959 0.084021,-0.0333 0.1690564,-0.0639 0.2524284,-0.0988 0.078069,-0.0319 0.1564622,-0.063 0.2351077,-0.0934 0.083895,-0.0332 0.1679742,-0.0659 0.2526636,-0.097 0.073006,-0.0303 0.1455407,-0.062 0.214997,-0.0999 0.00917,-0.005 0.036516,-0.0206 0.027505,-0.0152 -0.024929,0.0148 -0.049995,0.0294 -0.075262,0.0436 -0.0096,0.005 0.018844,-0.0114 0.028243,-0.0172 0.00979,-0.006 0.019439,-0.0122 0.029339,-0.018 0.044459,-0.026 0.089095,-0.0518 0.1337342,-0.0775 0.011978,-0.007 0.024077,-0.0136 0.036117,-0.0204 -0.019957,0.0116 -0.039758,0.0236 -0.05987,0.0349 -0.015155,0.009 0.030079,-0.0176 0.044997,-0.0265 0.077538,-0.0467 0.1538478,-0.0953 0.2316345,-0.1416 0.153012,-0.09 0.3051175,-0.18155 0.4591045,-0.2699 0.1312392,-0.0779 0.2623553,-0.15607 0.3928853,-0.23519 0.1006428,-0.0604 0.1994898,-0.12378 0.2969636,-0.18913 0.068587,-0.0489 0.137097,-0.0979 0.2100935,-0.14014 0.066105,-0.0397 0.129886,-0.0832 0.1965912,-0.12192 0.071914,-0.0424 0.1446612,-0.0836 0.2129218,-0.13183 0.018722,-0.0134 0.047909,-0.0339 0.065885,-0.0487 0.034116,-0.028 0.06547,-0.0594 0.095415,-0.0918 0.033179,-0.0389 0.065594,-0.0785 0.095436,-0.12007 0.023289,-0.0324 0.046519,-0.0652 0.062995,-0.1018 0,0 0.1132118,-0.0505 0.1132118,-0.0505 z"
       inkscape:connector-curvature="0" />
    <path
       style="opacity:1;fill:none;fill-opacity:1;stroke:#000000;stroke-width:0.03546907;stroke-linejoin:miter;stroke-miterlimit:4;stroke-dasharray:none"
       id="path823"
       d="m 6.0737336,293.01541 c -0.036267,0.008 -0.069958,0.0236 -0.1043895,0.0369 -0.00643,0.003 -0.012769,0.006 -0.019277,0.008 -0.00172,6.6e-4 -0.03775,0.0132 -0.03963,0.0139 -0.021214,0.008 -0.041387,0.0181 -0.061702,0.0281 -0.024117,0.0121 -0.048266,0.0242 -0.071944,0.0372 -0.00868,0.005 -0.034492,0.0195 -0.025905,0.0145 0.1004724,-0.0578 0.094763,-0.0546 0.047068,-0.026 -0.065914,0.0383 -0.1293228,0.0806 -0.1949072,0.11943 -0.4404905,0.2539 0.2446126,-0.14141 -0.2012323,0.11657 -0.021204,0.0123 0.084914,-0.0489 0.063649,-0.0367 -0.08998,0.0515 -0.2169816,0.12483 -0.084216,0.0482 -0.091282,0.0535 -0.1813613,0.10901 -0.271835,0.16386 -0.084094,0.0518 -0.1658806,0.10712 -0.2455829,0.16542 -0.061146,0.0455 -0.120909,0.0928 -0.1809276,0.13985 -0.068847,0.0561 -0.1393727,0.10996 -0.2091147,0.16488 -0.076144,0.0567 -0.1445419,0.12192 -0.2092455,0.19107 -0.045871,0.0502 -0.087453,0.10399 -0.1288143,0.15786 -0.033706,0.0434 -0.067839,0.0865 -0.1032671,0.12846 -0.034932,0.0387 -0.066716,0.08 -0.099987,0.12004 -0.031665,0.0359 -0.058558,0.0755 -0.087513,0.11348 -0.028424,0.0378 -0.056945,0.0754 -0.086099,0.11261 -0.027453,0.0349 -0.056305,0.0686 -0.08513,0.1023 -0.024265,0.0316 -0.050821,0.0612 -0.077799,0.0904 -0.026754,0.0326 -0.058795,0.0596 -0.09156,0.0858 -0.039966,0.0312 -0.079015,0.0633 -0.1202452,0.0928 -0.059948,0.039 -0.1175155,0.0815 -0.1762419,0.12234 -0.073035,0.0504 -0.1480979,0.0978 -0.2231281,0.14513 -0.056555,0.0361 -0.1091555,0.0779 -0.1623042,0.11869 -0.047948,0.0351 -0.09044,0.0767 -0.1356042,0.11514 -0.040934,0.0327 -0.077985,0.0698 -0.11331,0.10845 -0.038347,0.043 -0.06744,0.093 -0.097979,0.14158 -0.028699,0.0456 -0.057019,0.0915 -0.082479,0.13897 -0.019033,0.0401 -0.032576,0.0824 -0.050373,0.12305 -0.015957,0.0333 -0.03291,0.0662 -0.046195,0.10077 -0.00784,0.0246 -0.015377,0.0492 -0.022933,0.0739 -0.00647,0.0223 -0.012988,0.0446 -0.017399,0.0674 -0.00261,0.0242 -0.00391,0.0479 -0.011013,0.0713 -0.012511,0.0326 -0.025483,0.065 -0.037789,0.0978 -0.013074,0.0346 -0.022056,0.0705 -0.033243,0.10578 -0.013287,0.0404 -0.028241,0.0802 -0.041187,0.1207 -0.00489,0.0165 -0.010693,0.0326 -0.021241,0.0464 0,0 -0.1153866,0.0457 -0.1153866,0.0457 v 0 c 0.00231,-7.9e-4 0.00499,-8.5e-4 0.00692,-0.002 0.011309,-0.009 0.013992,-0.0255 0.019223,-0.0376 0.013025,-0.0406 0.028209,-0.0803 0.041429,-0.12082 0.011458,-0.0353 0.019709,-0.0715 0.03264,-0.10624 0.012577,-0.0322 0.024135,-0.0648 0.03716,-0.0968 0.00803,-0.0227 0.010406,-0.0456 0.011799,-0.0696 0.00323,-0.0235 0.010343,-0.0461 0.016638,-0.0689 0.00786,-0.0248 0.015608,-0.0497 0.022983,-0.0747 0.013044,-0.0351 0.03034,-0.0684 0.046783,-0.10196 0.019311,-0.0403 0.032058,-0.0833 0.050679,-0.12394 0.025033,-0.0481 0.054109,-0.094 0.082679,-0.14007 0.030755,-0.0487 0.05955,-0.0991 0.096805,-0.14327 0.034592,-0.0396 0.072014,-0.0769 0.1128404,-0.11011 0.045841,-0.0381 0.088081,-0.0803 0.1359774,-0.11587 0.05364,-0.0411 0.1065596,-0.0834 0.1632537,-0.12025 0.075218,-0.0472 0.1506038,-0.0943 0.2236978,-0.14479 0.058144,-0.0403 0.114549,-0.0831 0.1740927,-0.12136 0.041177,-0.029 0.080023,-0.0607 0.1195448,-0.0918 0.032481,-0.0259 0.065683,-0.0512 0.091886,-0.0838 0.026695,-0.0296 0.054723,-0.058 0.078373,-0.0902 0.028573,-0.0339 0.057985,-0.0671 0.085409,-0.10194 0.029409,-0.037 0.058127,-0.0745 0.086295,-0.11252 0.02935,-0.0379 0.055986,-0.0779 0.087514,-0.11409 0.034015,-0.0396 0.064915,-0.0819 0.1004668,-0.12028 0.035696,-0.0418 0.069563,-0.085 0.1037558,-0.12806 0.042133,-0.0543 0.083897,-0.10903 0.1303991,-0.15975 0.064955,-0.0696 0.1328145,-0.13618 0.2094394,-0.19305 0.069012,-0.0549 0.1394071,-0.10812 0.2074373,-0.1643 0.060361,-0.047 0.12006,-0.0949 0.1815499,-0.1405 0.080294,-0.0587 0.1624323,-0.1147 0.2470158,-0.16708 0.090318,-0.0546 0.1800305,-0.11022 0.2709794,-0.16378 0.4686737,-0.27063 -0.2345264,0.13557 0.2220529,-0.12807 0.022336,-0.0129 -0.089177,0.0519 -0.066958,0.0388 0.04468,-0.0263 0.089571,-0.0523 0.1343414,-0.0785 0.023154,-0.0135 -0.04633,0.0271 -0.069495,0.0406 0.065661,-0.0383 0.1287253,-0.0806 0.1942785,-0.11904 0.084255,-0.0509 0.1688928,-0.10148 0.2574501,-0.14461 0.039612,-0.0189 0.080596,-0.0337 0.1214552,-0.0496 0.034956,-0.014 0.06999,-0.0275 0.1061635,-0.0381 0,0 -0.097537,0.0763 -0.097537,0.0763 z"
       inkscape:connector-curvature="0" />
  </g>
</svg>
