<?xml version="1.0" encoding="UTF-8" standalone="no"?>
<!-- Created with Inkscape (http://www.inkscape.org/) -->

<svg
   xmlns:dc="http://purl.org/dc/elements/1.1/"
   xmlns:cc="http://creativecommons.org/ns#"
   xmlns:rdf="http://www.w3.org/1999/02/22-rdf-syntax-ns#"
   xmlns:svg="http://www.w3.org/2000/svg"
   xmlns="http://www.w3.org/2000/svg"
   xmlns:sodipodi="http://sodipodi.sourceforge.net/DTD/sodipodi-0.dtd"
   xmlns:inkscape="http://www.inkscape.org/namespaces/inkscape"
   width="24"
   height="24"
   viewBox="0 0 6.3499999 6.3500002"
   version="1.1"
   id="svg8"
   inkscape:version="0.92.4 (5da689c313, 2019-01-14)"
   sodipodi:docname="front-end-ornament3.svg">
  <defs
     id="defs2" />
  <sodipodi:namedview
     id="base"
     pagecolor="#ffffff"
     bordercolor="#666666"
     borderopacity="1.0"
     inkscape:pageopacity="0.0"
     inkscape:pageshadow="2"
     inkscape:zoom="22.627417"
     inkscape:cx="14.297461"
     inkscape:cy="10.113812"
     inkscape:document-units="mm"
     inkscape:current-layer="layer1"
     showgrid="false"
     units="px"
     inkscape:window-width="1920"
     inkscape:window-height="1001"
     inkscape:window-x="-9"
     inkscape:window-y="-9"
     inkscape:window-maximized="1">
    <inkscape:grid
       type="xygrid"
       id="grid969" />
  </sodipodi:namedview>
  <metadata
     id="metadata5">
    <rdf:RDF>
      <cc:Work
         rdf:about="">
        <dc:format>image/svg+xml</dc:format>
        <dc:type
           rdf:resource="http://purl.org/dc/dcmitype/StillImage" />
        <dc:title></dc:title>
      </cc:Work>
    </rdf:RDF>
  </metadata>
  <g
     inkscape:label="Layer 1"
     inkscape:groupmode="layer"
     id="layer1"
     transform="translate(0,-290.64998)">
    <path
       style="fill:none;stroke:#000000;stroke-width:0.26458332px;stroke-linecap:butt;stroke-linejoin:miter;stroke-opacity:1"
       d="m 5.455616,295.59662 c 0,0 -0.046271,0.3351 -0.083992,0.2612 -0.037721,-0.0739 -0.025575,-0.15191 0.023624,-0.2008 0.049199,-0.0489 0.1439397,-0.0491 0.2126116,-0.0236 0.068672,0.0255 0.098135,0.0519 0.1535528,0.16537 0.055418,0.11343 0.019553,0.27871 0.00738,0.32926 -0.012171,0.0505 -0.091044,0.22008 -0.1963705,0.27314 -0.1053266,0.0531 -0.3307292,0.0354 -0.3779762,0.0236 -0.047247,-0.0118 -0.3964776,-0.21538 -0.4960937,-0.34254 -0.099616,-0.12716 -0.1186071,-0.18302 -0.1299294,-0.34254 -0.011322,-0.15952 0.00545,-0.33234 0.1299293,-0.57878 0.1244811,-0.24644 0.5054507,-0.55941 0.6968936,-0.80319 0.1914429,-0.24378 0.3970735,-0.42722 0.4606584,-0.64965 0.063585,-0.22243 0.056526,-0.34273 -0.035435,-0.59059 -0.091962,-0.24786 -0.3569123,-0.60663 -0.6023996,-0.79139 -0.2454873,-0.18476 -0.5516995,-0.29672 -0.7913876,-0.3071 -0.2396881,-0.0104 -0.4110833,0.0364 -0.5669643,0.16536 -0.155881,0.12897 -0.2834453,0.34297 -0.2834823,0.55515 -3.7e-5,0.21218 0.069839,0.42162 0.2952941,0.57878 0.2254553,0.15716 0.7399117,0.25528 0.9921875,0.11812 0.2522758,-0.13716 0.2809417,-0.37713 0.2214704,-0.62012 -0.059471,-0.24299 -0.2450939,-0.37792 -0.5521996,-0.38388 -0.3071057,-0.006 -0.3422371,0.3226 -0.3750232,0.3898 -0.032786,0.0672 0.4518,-0.36026 0.4518,-0.36026"
       id="path988"
       inkscape:connector-curvature="0"
       sodipodi:nodetypes="czzzzzzzzzzzzzzzzzzzzzzc" />
    <path
       style="fill:none;stroke:#000000;stroke-width:0.26458332px;stroke-linecap:butt;stroke-linejoin:miter;stroke-opacity:1"
       d="m 4.8755299,292.1253 c 0,0 -0.4233245,-0.36779 -0.4724703,-0.55515 -0.049146,-0.18736 0.0055,-0.31571 0.082682,-0.42522 0.077187,-0.10951 0.1889881,-0.18899 0.3189174,-0.18899 0.1299293,0 0.3582904,0.0287 0.4488467,0.12993 0.090556,0.10121 -0.2391878,-0.11221 -0.2391878,-0.11221"
       id="path990"
       inkscape:connector-curvature="0"
       sodipodi:nodetypes="czzzzc" />
    <path
       style="fill:none;stroke:#000000;stroke-width:0.26458332px;stroke-linecap:butt;stroke-linejoin:miter;stroke-opacity:1"
       d="m 4.0368951,293.41279 c 0,0 0.013363,0.22596 -0.035435,0.29529 -0.048798,0.0693 -0.141741,0.0709 -0.1889881,0.0945 -0.047247,0.0236 -0.3375909,0.0792 -0.5079056,-0.0738 -0.1703147,-0.15296 0.2332823,0.0945 0.2332823,0.0945"
       id="path994"
       inkscape:connector-curvature="0"
       sodipodi:nodetypes="czzzc" />
    <path
       style="fill:none;stroke:#000000;stroke-width:0.26458332px;stroke-linecap:butt;stroke-linejoin:miter;stroke-opacity:1"
       d="m 5.7044408,295.70087 c 0,0 -0.1303747,-0.24823 -0.1556408,-0.3982 -0.025266,-0.14997 0.016305,-0.25785 0.066101,-0.33575 0.049796,-0.0779 0.079188,-0.0524 0.1522689,-0.053 0.073081,-6.2e-4 -0.1522689,0.053 -0.1522689,0.053"
       id="path996"
       inkscape:connector-curvature="0"
       sodipodi:nodetypes="czzzc" />
    <path
       style="fill:none;stroke:#000000;stroke-width:0.26458332px;stroke-linecap:butt;stroke-linejoin:miter;stroke-opacity:1"
       d="m 5.4588297,296.43255 c 0.1535528,-0.0118 0.2791193,-0.0793 0.3779762,-0.0591 0.098857,0.0202 0.1339179,0.0762 0.1889881,0.11812 0.05507,0.0419 0.1344427,0.29882 0.054043,0.31993 -0.080399,0.0211 0.018792,-0.19377 0.018792,-0.19377"
       id="path998"
       inkscape:connector-curvature="0"
       sodipodi:nodetypes="czzzc" />
  </g>
</svg>
