<?xml version="1.0" encoding="UTF-8" standalone="no"?>
<!-- Created with Inkscape (http://www.inkscape.org/) -->

<svg
   xmlns:dc="http://purl.org/dc/elements/1.1/"
   xmlns:cc="http://creativecommons.org/ns#"
   xmlns:rdf="http://www.w3.org/1999/02/22-rdf-syntax-ns#"
   xmlns:svg="http://www.w3.org/2000/svg"
   xmlns="http://www.w3.org/2000/svg"
   xmlns:sodipodi="http://sodipodi.sourceforge.net/DTD/sodipodi-0.dtd"
   xmlns:inkscape="http://www.inkscape.org/namespaces/inkscape"
   width="24"
   height="24"
   viewBox="0 0 6.3499999 6.3500002"
   version="1.1"
   id="svg8"
   sodipodi:docname="front-end-ornament5.svg"
   inkscape:version="0.92.4 (5da689c313, 2019-01-14)">
  <defs
     id="defs2" />
  <sodipodi:namedview
     id="base"
     pagecolor="#ffffff"
     bordercolor="#666666"
     borderopacity="1.0"
     inkscape:pageopacity="0.0"
     inkscape:pageshadow="2"
     inkscape:zoom="32"
     inkscape:cx="4.3584749"
     inkscape:cy="14.317255"
     inkscape:document-units="mm"
     inkscape:current-layer="layer1"
     showgrid="false"
     units="px"
     inkscape:window-width="1920"
     inkscape:window-height="1001"
     inkscape:window-x="-9"
     inkscape:window-y="-9"
     inkscape:window-maximized="1" />
  <metadata
     id="metadata5">
    <rdf:RDF>
      <cc:Work
         rdf:about="">
        <dc:format>image/svg+xml</dc:format>
        <dc:type
           rdf:resource="http://purl.org/dc/dcmitype/StillImage" />
        <dc:title></dc:title>
      </cc:Work>
    </rdf:RDF>
  </metadata>
  <g
     inkscape:label="Layer 1"
     inkscape:groupmode="layer"
     id="layer1"
     transform="translate(0,-290.64998)">
    <path
       style="opacity:1;fill:#000000;fill-opacity:1;stroke:#000000;stroke-width:0.03546907;stroke-linejoin:miter;stroke-miterlimit:4;stroke-dasharray:none"
       id="path815"
       d="m 5.9648404,290.90494 c 0.00657,-0.003 -0.045749,0.0256 -0.034424,0.019 0.1160132,-0.0676 0.1036281,-0.0604 0.06162,-0.0339 -0.00786,0.005 -0.015658,0.01 -0.023574,0.0149 -0.00813,0.005 -0.016375,0.01 -0.024564,0.0147 -0.058159,0.0339 -0.068194,0.0399 -0.1546995,0.0891 -0.00921,0.005 -0.037079,0.0205 -0.027921,0.0152 0.1579586,-0.0919 0.041379,-0.0221 0.00983,-0.003 -0.104653,0.0637 -0.2090396,0.12836 -0.3190327,0.18264 -0.1017958,0.0473 -0.2064231,0.0879 -0.3104303,0.12992 -0.1231442,0.0474 -0.2452275,0.0981 -0.370514,0.13975 -0.027539,0.009 -0.0554,0.0173 -0.0831,0.026 -0.1467458,0.0464 -0.296378,0.0818 -0.4463203,0.1159 -0.086306,0.0197 -0.1730917,0.0377 -0.2611546,0.0475 -0.055937,0.006 -0.081503,0.007 -0.1380961,0.0105 -0.1371552,0.005 -0.2746481,0.009 -0.4118634,0.004 -0.031322,-10e-4 -0.062601,-0.003 -0.093902,-0.005 -0.1544423,-0.013 -0.3081269,-0.0344 -0.4601798,-0.0643 -0.079834,-0.017 -0.1579186,-0.0401 -0.2342157,-0.0688 -0.044746,-0.018 -0.089653,-0.0351 -0.1371333,-0.0442 -0.020418,-0.003 -0.010502,-0.002 -0.029738,-0.004 0,0 0.1003215,-0.0711 0.1003215,-0.0711 v 0 c 0.019296,0.003 0.00935,10e-4 0.029822,0.005 0.047062,0.0109 0.091616,0.0291 0.1363871,0.047 0.074788,0.0285 0.1511057,0.0525 0.229339,0.0698 0.1499188,0.0315 0.3017449,0.0539 0.4544854,0.0663 0.031333,0.001 0.062647,0.003 0.094,0.004 0.1380038,0.004 0.2762398,-10e-4 0.4141182,-0.007 0.058256,-0.004 0.080853,-0.005 0.1383384,-0.0116 0.08763,-0.0104 0.1740331,-0.0285 0.2600227,-0.0479 0.1489956,-0.0337 0.2976925,-0.0686 0.4434446,-0.11485 0.027659,-0.009 0.055476,-0.0171 0.082977,-0.0264 0.1259874,-0.0425 0.248843,-0.0938 0.3726384,-0.14205 0.1048998,-0.0427 0.2103522,-0.0843 0.3127388,-0.13289 0.01351,-0.007 0.05248,-0.0297 0.040527,-0.0204 -0.019121,0.0148 -0.041723,0.0246 -0.062287,0.0373 -0.011845,0.007 0.024141,-0.0139 0.036125,-0.0211 0.034127,-0.0203 0.067527,-0.0418 0.1017334,-0.0619 0.064334,-0.0398 0.1287809,-0.0776 0.1945489,-0.11556 0.00924,-0.005 0.03717,-0.0209 0.028013,-0.0155 -0.025313,0.0151 -0.050999,0.0296 -0.076494,0.0444 -0.00838,0.005 0.016775,-0.01 0.025162,-0.0146 0.023466,-0.0137 0.045837,-0.0291 0.069187,-0.0429 0.053238,-0.0315 0.1066665,-0.0623 0.1604336,-0.0928 0,0 -0.096169,0.0776 -0.096169,0.0776 z"
       inkscape:connector-curvature="0" />
    <path
       style="opacity:1;fill:#000000;fill-opacity:1;stroke:#000000;stroke-width:0.03546907;stroke-linejoin:miter;stroke-miterlimit:4;stroke-dasharray:none"
       id="path817"
       d="m 6.2313817,291.03843 c -0.024042,0.0331 -0.049612,0.0651 -0.075215,0.097 -0.030398,0.0377 -0.060555,0.0756 -0.09119,0.11306 -0.035705,0.041 -0.073484,0.0801 -0.1085432,0.12174 -0.036127,0.0414 -0.076602,0.0787 -0.1177311,0.11504 -0.058433,0.0529 -0.1224282,0.0987 -0.1879925,0.1422 -0.08456,0.0505 -0.1667008,0.1046 -0.2463657,0.16251 -0.066435,0.0529 -0.1352675,0.10257 -0.2042261,0.15209 -0.010144,0.007 -0.020293,0.0148 -0.03043,0.0222 -0.029211,0.0214 -0.058317,0.0429 -0.088889,0.0623 -0.041413,0.0263 -0.1652833,0.0957 -0.1662641,0.0963 -0.011446,0.006 -0.022884,0.0117 -0.034335,0.0175 -0.011957,0.006 -0.024069,0.0119 -0.035889,0.0182 -0.012245,0.007 -0.048422,0.0273 -0.036282,0.0206 0.021638,-0.0121 0.04258,-0.0254 0.064772,-0.0364 0.012626,-0.006 -0.024037,0.0147 -0.036004,0.0222 -0.012589,0.008 -0.025109,0.0158 -0.037664,0.0236 -0.091963,0.0548 -0.00839,0.005 -0.1824429,0.10536 -0.019301,0.0111 0.038211,-0.0229 0.058051,-0.033 0.014949,-0.008 -0.028811,0.0172 -0.043354,0.0255 -0.1375463,0.079 -0.1025819,0.0596 -0.1895692,0.10687 -0.083164,0.0465 -0.1681591,0.0891 -0.2545057,0.12925 -0.08348,0.0401 -0.1706406,0.0714 -0.2563563,0.10618 -0.014428,0.006 -0.028953,0.0114 -0.043279,0.0174 -0.1355419,0.0572 0.049809,-0.0191 -0.091232,0.0397 -0.051881,0.0216 -0.1044429,0.0414 -0.1571572,0.0608 -0.1164008,0.0468 -0.2377972,0.0785 -0.3590644,0.10967 -0.1318681,0.0288 -0.2641164,0.0559 -0.3961593,0.084 -0.1065705,0.0195 -0.2119985,0.0445 -0.3182361,0.0656 -0.073774,0.0147 -0.09366,0.0176 -0.1675959,0.0305 -0.1522823,0.027 -0.304031,0.0564 -0.455479,0.0877 -0.1230783,0.0274 -0.24685,0.0515 -0.3707137,0.0751 -0.085171,0.0154 -0.169249,0.0364 -0.2547258,0.0501 -0.061184,0.009 -0.1230596,0.0117 -0.1848376,0.0128 -0.059529,1.3e-4 -0.117617,0.0126 -0.17544945,0.0252 -0.0497035,0.011 -0.0993338,0.0221 -0.14969704,0.0296 -0.005363,6.7e-4 -0.0107267,0.001 -0.0160904,0.002 0,0 0.0983331,-0.0733 0.0983331,-0.0733 v 0 c 0.005175,-6.4e-4 0.0103494,-0.001 0.0155242,-0.002 0.0498185,-0.007 0.0989189,-0.0184 0.14806989,-0.0293 0.058306,-0.0122 0.1170012,-0.0232 0.1768413,-0.0234 0.061026,-10e-4 0.1221506,-0.004 0.1825475,-0.0132 0.084472,-0.0141 0.1678831,-0.0338 0.2522386,-0.0486 0.1230597,-0.0229 0.2459554,-0.0466 0.3682275,-0.0734 0.1509805,-0.0309 0.3022834,-0.0597 0.4540927,-0.0863 0.1631499,-0.0285 0.3246989,-0.0645 0.4869713,-0.0975 0.132383,-0.0287 0.2651538,-0.0557 0.3972888,-0.0854 0.1213144,-0.0315 0.2425287,-0.0639 0.3589155,-0.11106 0.098898,-0.0371 0.1959644,-0.0783 0.2931888,-0.1195 0.08571,-0.0344 0.1724839,-0.0663 0.2557597,-0.10651 0.085989,-0.0403 0.1704951,-0.0833 0.2535558,-0.12941 0.074988,-0.0409 0.04538,-0.0255 -0.010573,0.008 -0.01429,0.009 0.028732,-0.0171 0.043167,-0.0255 0.04747,-0.0277 0.094925,-0.0554 0.1425482,-0.0828 0.00212,-10e-4 -0.1279332,0.0752 -0.018754,0.011 0.1033812,-0.0655 0.2085684,-0.12831 0.3180133,-0.18316 -0.02308,0.0135 -0.046136,0.0271 -0.069237,0.0406 -0.010583,0.006 0.021265,-0.0122 0.031685,-0.0187 0.041544,-0.0257 0.080402,-0.0554 0.1198338,-0.0842 0.069345,-0.05 0.139483,-0.0988 0.2059318,-0.15267 0.079261,-0.0583 0.1609606,-0.11294 0.2457656,-0.16288 0.064891,-0.0426 0.1283782,-0.0874 0.1859754,-0.13965 0.041141,-0.0358 0.081255,-0.0731 0.1182351,-0.11321 0.03454,-0.0419 0.071803,-0.0813 0.1082599,-0.12147 0.0304,-0.0374 0.060547,-0.075 0.090624,-0.11275 0.025323,-0.0313 0.051129,-0.0624 0.073578,-0.0958 0,0 0.1135365,-0.0489 0.1135365,-0.0489 z"
       inkscape:connector-curvature="0" />
    <path
       style="opacity:1;fill:#000000;fill-opacity:1;stroke:#000000;stroke-width:0.03546907;stroke-linejoin:miter;stroke-miterlimit:4;stroke-dasharray:none"
       id="path819"
       d="m 6.1914566,291.78669 c -0.019082,0.0363 -0.041122,0.0707 -0.0649,0.104 -0.029883,0.0419 -0.062287,0.082 -0.095573,0.12123 -0.047477,0.0553 -0.1037842,0.1013 -0.1624479,0.14409 -0.067911,0.0487 -0.1403627,0.0903 -0.2122588,0.13276 -0.066689,0.0384 -0.1304237,0.0816 -0.1961324,0.1216 -0.073336,0.0426 -0.1429898,0.0909 -0.2120598,0.13997 -0.098014,0.0662 -0.1979115,0.12973 -0.2991398,0.19093 -0.1317323,0.0796 -0.2640393,0.15822 -0.3964736,0.23665 -0.153661,0.0881 -0.305508,0.17929 -0.4579385,0.26948 -0.091806,0.0537 -0.1803529,0.1129 -0.2722803,0.16641 -0.046721,0.0272 -0.093657,0.054 -0.1404863,0.081 -0.012245,0.007 -0.04894,0.0279 -0.036738,0.0208 0.023117,-0.0133 0.046045,-0.0269 0.069479,-0.0397 0.00992,-0.005 -0.019286,0.0118 -0.028926,0.0176 -0.00935,0.006 -0.018592,0.0116 -0.028049,0.0171 -0.1194334,0.0698 -0.090008,0.0534 -0.1574926,0.0902 -0.069194,0.037 -0.141431,0.0677 -0.2139733,0.0974 -0.085079,0.0305 -0.1691807,0.0636 -0.2531039,0.0971 -0.07846,0.0306 -0.1567905,0.0615 -0.234746,0.0933 -0.083587,0.0348 -0.1688439,0.0652 -0.2528367,0.099 -0.076364,0.0332 -0.1532269,0.0651 -0.2304485,0.0962 -0.068456,0.0294 -0.1392741,0.0524 -0.2066641,0.0843 -0.031125,0.0162 -0.062248,0.0325 -0.092852,0.0498 -0.010481,0.006 -0.041645,0.0241 -0.031218,0.0181 0.023429,-0.0135 0.046751,-0.0271 0.070224,-0.0405 0.011175,-0.006 -0.022219,0.013 -0.033329,0.0195 -0.066941,0.0402 -0.1321957,0.083 -0.1983614,0.12446 -0.081331,0.0482 0.013771,-0.008 -0.1622746,0.0934 -0.023881,0.0138 0.047632,-0.0278 0.071875,-0.0409 0.010619,-0.006 -0.02068,0.0125 -0.030985,0.0188 -0.026995,0.0165 -0.033404,0.0206 -0.060037,0.0373 -0.054206,0.0329 -0.1088827,0.0649 -0.162462,0.0988 -0.042962,0.0254 -0.084307,0.0533 -0.1233475,0.0844 -0.029943,0.0241 -0.063009,0.0439 -0.094957,0.0651 -0.027419,0.0186 -0.055581,0.0358 -0.081738,0.0562 -0.028584,0.0237 -0.056575,0.0481 -0.085191,0.0718 -0.029947,0.0268 -0.060793,0.0526 -0.092186,0.0777 -0.0399259,0.0301 -0.0786591,0.0617 -0.11765554,0.093 -0.0454156,0.0344 -0.0883719,0.0719 -0.13278527,0.10753 -0.039751,0.0285 -0.0746041,0.0624 -0.10698032,0.0989 -0.0274154,0.0341 -0.0576193,0.0657 -0.0851943,0.0996 -0.0279065,0.0372 -0.055342,0.0746 -0.084738,0.11062 -0.0271851,0.036 -0.0498707,0.0753 -0.0734624,0.11373 -0.02281,0.0342 -0.0414314,0.0708 -0.0620985,0.10624 -0.0175072,0.0309 -0.0359614,0.0612 -0.054178,0.0917 -0.0149751,0.0234 -0.0299536,0.0467 -0.0428347,0.0713 -0.0122531,0.0203 -0.0236705,0.0404 -0.0315673,0.0628 -0.003195,0.0113 -0.007061,0.0222 -0.0113158,0.0331 0,0 -0.11211973,0.0515 -0.11211973,0.0515 v 0 c 0.0048506,-0.0104 0.0093322,-0.021 0.01178505,-0.0323 0.0075675,-0.0232 0.01651815,-0.0447 0.03094196,-0.0646 0.0129763,-0.0249 0.0266501,-0.0494 0.0432479,-0.0722 0.0180202,-0.0307 0.037151,-0.0607 0.0544674,-0.0918 0.0214476,-0.0352 0.0391132,-0.0725 0.0625141,-0.10653 0.023354,-0.039 0.0471125,-0.078 0.0730381,-0.1154 0.0293974,-0.0359 0.0574383,-0.0728 0.084667,-0.11038 0.0267447,-0.0347 0.0575656,-0.0658 0.0847901,-0.10014 0.0323607,-0.0372 0.0665152,-0.0728 0.10713643,-0.10124 0.0444496,-0.0355 0.0872172,-0.0729 0.13243962,-0.10739 0.0388888,-0.031 0.0770851,-0.063 0.116962,-0.0927 0.03137,-0.0248 0.062367,-0.0501 0.0918345,-0.0772 0.0281457,-0.0242 0.0573048,-0.0472 0.0848811,-0.0721 0.0091,-0.007 0.017827,-0.015 0.027185,-0.0219 0.017352,-0.0128 0.037142,-0.022 0.054291,-0.0351 0.031288,-0.0225 0.065552,-0.0407 0.095885,-0.0646 0.039095,-0.0319 0.080341,-0.061 0.1240935,-0.0862 0.053715,-0.0343 0.1084651,-0.0667 0.1632461,-0.0992 0.07365,-0.0463 0.148196,-0.0899 0.223627,-0.13349 0.024171,-0.014 -0.048239,0.0281 -0.072281,0.0423 -0.010059,0.006 0.02022,-0.0117 0.03033,-0.0176 0.066445,-0.0412 0.1318006,-0.0841 0.1985153,-0.12488 0.096137,-0.0564 0.1919035,-0.11383 0.2916222,-0.16378 0.067663,-0.0307 0.138182,-0.0541 0.2064784,-0.0833 0.077126,-0.031 0.1536358,-0.0634 0.230126,-0.0959 0.084021,-0.0333 0.1690564,-0.0639 0.2524284,-0.0988 0.078069,-0.0319 0.1564622,-0.063 0.2351077,-0.0934 0.083895,-0.0332 0.1679742,-0.0659 0.2526636,-0.097 0.073006,-0.0303 0.1455407,-0.062 0.214997,-0.0999 0.00917,-0.005 0.036516,-0.0206 0.027505,-0.0152 -0.024929,0.0148 -0.049995,0.0294 -0.075262,0.0436 -0.0096,0.005 0.018844,-0.0114 0.028243,-0.0172 0.00979,-0.006 0.019439,-0.0122 0.029339,-0.018 0.044459,-0.026 0.089095,-0.0518 0.1337342,-0.0775 0.011978,-0.007 0.024077,-0.0136 0.036117,-0.0204 -0.019957,0.0116 -0.039758,0.0236 -0.05987,0.0349 -0.015155,0.009 0.030079,-0.0176 0.044997,-0.0265 0.077538,-0.0467 0.1538478,-0.0953 0.2316345,-0.1416 0.153012,-0.09 0.3051175,-0.18155 0.4591045,-0.2699 0.1312392,-0.0779 0.2623553,-0.15607 0.3928853,-0.23519 0.1006428,-0.0604 0.1994898,-0.12378 0.2969636,-0.18913 0.068587,-0.0489 0.137097,-0.0979 0.2100935,-0.14014 0.066105,-0.0397 0.129886,-0.0832 0.1965912,-0.12192 0.071914,-0.0424 0.1446612,-0.0836 0.2129218,-0.13183 0.018722,-0.0134 0.047909,-0.0339 0.065885,-0.0487 0.034116,-0.028 0.06547,-0.0594 0.095415,-0.0918 0.033179,-0.0389 0.065594,-0.0785 0.095436,-0.12007 0.023289,-0.0324 0.046519,-0.0652 0.062995,-0.1018 0,0 0.1132118,-0.0505 0.1132118,-0.0505 z"
       inkscape:connector-curvature="0" />
    <path
       style="opacity:1;fill:#000000;fill-opacity:1;stroke:#000000;stroke-width:0.03546907;stroke-linejoin:miter;stroke-miterlimit:4;stroke-dasharray:none"
       id="path853"
       d="m 3.4540362,295.48694 c 0.014049,-0.0367 0.038585,-0.0674 0.059537,-0.10012 0.026732,-0.0424 0.051316,-0.086 0.078304,-0.12823 0.032322,-0.0468 0.059886,-0.0965 0.089932,-0.14475 0.030691,-0.0481 0.060564,-0.0968 0.088652,-0.14655 0.024093,-0.0447 0.051344,-0.0874 0.07818,-0.13046 0.02508,-0.0428 0.050555,-0.0853 0.075382,-0.12819 0.025979,-0.0411 0.04961,-0.0836 0.074536,-0.12528 0.025104,-0.0389 0.048045,-0.079 0.075277,-0.11647 0.028285,-0.0366 0.054495,-0.0747 0.082069,-0.11176 0.03033,-0.0369 0.058896,-0.0753 0.088687,-0.11265 0.034176,-0.0387 0.065842,-0.0794 0.098569,-0.11921 0.039181,-0.0445 0.07628,-0.0907 0.1149019,-0.13562 0.037624,-0.0383 0.073778,-0.0777 0.1084813,-0.11867 0.031968,-0.0375 0.06268,-0.076 0.093132,-0.11472 0.028708,-0.0372 0.058862,-0.0731 0.089466,-0.10875 0.02168,-0.0261 0.045975,-0.0498 0.069883,-0.0738 0.028178,-0.0264 0.053766,-0.0551 0.078288,-0.0849 0.027143,-0.0307 0.056363,-0.0594 0.087872,-0.0856 0.027588,-0.0233 0.053269,-0.0487 0.083664,-0.0684 0.041209,-0.0237 0.093084,-0.054 0.1388626,-0.0796 0.00631,-0.004 0.012652,-0.007 0.018942,-0.0105 0.00662,-0.004 0.026389,-0.0151 0.019775,-0.0114 -0.085627,0.0486 -0.1109666,0.0642 -0.0622,0.0346 0.038058,-0.0226 0.075298,-0.0463 0.1102895,-0.0734 0.029927,-0.0222 0.05945,-0.0451 0.09049,-0.0657 0.026815,-0.0148 0.051055,-0.0335 0.07629,-0.0507 0.057073,-0.039 0.1193763,-0.0695 0.1790457,-0.10415 0.015539,-0.008 0.030512,-0.0168 0.045721,-0.0253 0.00519,-0.003 0.020751,-0.0116 0.015608,-0.009 -0.107895,0.0626 -0.1157343,0.0676 -0.075182,0.0428 0.023934,-0.0158 0.048393,-0.0307 0.073042,-0.0454 0.048995,-0.0291 0.097746,-0.0603 0.1508067,-0.0819 0.018539,-0.008 0.037702,-0.0135 0.056355,-0.0208 0.03836,-0.0145 0.074422,-0.0341 0.1116579,-0.0511 0.024339,-0.0109 0.047586,-0.0241 0.072122,-0.0346 0.00859,-0.003 0.017338,-0.005 0.025911,-0.008 0,0 -0.096794,0.0752 -0.096794,0.0752 v 0 c -0.00846,0.003 -0.016976,0.005 -0.024987,0.009 -0.023744,0.0111 -0.047074,0.0231 -0.07099,0.0339 -0.036842,0.0176 -0.073528,0.0355 -0.1117219,0.05 -0.018785,0.007 -0.037852,0.0136 -0.056285,0.0216 -0.039822,0.0173 -0.1138952,0.0603 0.057523,-0.037 -0.024815,0.0146 -0.049664,0.0291 -0.073503,0.0452 -0.062679,0.0403 -0.1287391,0.075 -0.1937723,0.11134 -0.03791,0.0204 -0.1032751,0.0584 0.064877,-0.0391 0.00281,-0.002 -0.00991,0.006 -0.024604,0.015 -0.00387,0.002 -0.00767,0.005 -0.011496,0.008 -0.025929,0.0166 -0.049416,0.0367 -0.07673,0.0512 -0.032078,0.0191 -0.060755,0.0435 -0.09142,0.0647 -0.00175,0.001 -0.032121,0.0253 -0.033517,0.0263 -0.02454,0.0178 -0.051454,0.0321 -0.076744,0.0486 -0.00685,0.004 -0.013671,0.008 -0.020558,0.0123 -0.040866,0.024 -0.081759,0.048 -0.1227002,0.0719 -0.011409,0.007 -0.027386,0.0155 -0.038986,0.022 -0.00621,0.003 -0.024749,0.0141 -0.018606,0.0105 0.02872,-0.0168 0.057554,-0.0334 0.086331,-0.0501 -0.00545,0.003 -0.011126,0.005 -0.016346,0.009 -0.025093,0.0159 -0.044666,0.0397 -0.068015,0.0579 -0.031879,0.0256 -0.061416,0.0534 -0.08914,0.0835 -0.024323,0.0298 -0.048558,0.0596 -0.077011,0.0855 -0.023807,0.0244 -0.049026,0.0473 -0.071026,0.0735 -0.031025,0.0353 -0.06141,0.0712 -0.090177,0.10836 -0.030289,0.039 -0.06124,0.0775 -0.09312,0.11519 -0.034579,0.0413 -0.070252,0.0815 -0.108966,0.11906 -0.038969,0.0445 -0.075536,0.0911 -0.1148638,0.1353 -0.032786,0.0395 -0.063449,0.0808 -0.098001,0.11885 -0.030386,0.0368 -0.057722,0.076 -0.088803,0.1122 -0.027809,0.0369 -0.053688,0.0752 -0.08199,0.11166 -0.027883,0.0368 -0.0508,0.0766 -0.075707,0.11549 -0.025884,0.0412 -0.048149,0.0846 -0.075123,0.12516 -0.024434,0.0432 -0.050356,0.0855 -0.075126,0.1285 -0.026413,0.0432 -0.054694,0.0853 -0.07853,0.13011 -0.028196,0.0499 -0.058182,0.0988 -0.088837,0.14727 -0.030522,0.0478 -0.057204,0.0981 -0.089552,0.14473 -0.027315,0.0417 -0.051332,0.0854 -0.077672,0.12772 -0.019661,0.0325 -0.045409,0.0617 -0.058363,0.0978 0,0 -0.1112983,0.051 -0.1112983,0.051 z"
       inkscape:connector-curvature="0" />
    <path
       style="opacity:1;fill:#000000;fill-opacity:1;stroke:#000000;stroke-width:0.03546907;stroke-linejoin:miter;stroke-miterlimit:4;stroke-dasharray:none"
       id="path859"
       d="m 0.8136041,293.31524 c -0.0305376,0.006 -0.0612504,0.01 -0.0922139,0.0117 -0.0265189,0.002 -0.0530934,0.002 -0.0796499,0.002 -0.0340025,0.002 -0.0672961,-0.002 -0.10076066,-0.007 -0.0300127,-0.005 -0.0597354,-0.0119 -0.089531,-0.0181 -0.0328523,-0.005 -0.0651846,-0.0125 -0.0973217,-0.021 -0.0307075,-0.006 -0.0610959,-0.013 -0.0910204,-0.0222 -0.0295639,-0.0118 -0.0598996,-0.022 -0.0888862,-0.0352 -0.0221713,-0.0106 -0.0423273,-0.0235 -0.0588936,-0.0417 -0.007172,-0.009 -0.0119027,-0.0184 -0.01646282,-0.0285 l 0.10659598,-0.0601 v 0 c 0.003865,0.009 0.00787,0.0177 0.014501,0.025 0.0156233,0.0166 0.0348549,0.0284 0.0553879,0.0381 0.0287676,0.0127 0.0586282,0.0229 0.0880925,0.0338 0.0299213,0.009 0.0602676,0.0152 0.0906258,0.0221 0.0320598,0.009 0.0646077,0.0144 0.097254,0.0203 0.0295155,0.006 0.0590598,0.0128 0.0888239,0.0179 0.033251,0.005 0.0665405,0.006 0.10018791,0.005 0.0262893,-1.9e-4 0.0526022,-3.1e-4 0.0788368,-0.002 0.0308973,-0.003 0.061718,-0.007 0.091953,-0.0137 l -0.0251717,0.0597 z"
       inkscape:connector-curvature="0"
       sodipodi:nodetypes="ccccccccccccccccccccccc" />
  </g>
</svg>
