<svg xmlns="http://www.w3.org/2000/svg" viewBox="0 0 546 6" width="546" height="6"><path d="M.638 2.013l1.85.11L3.629.7l.465 1.749 1.742.618-1.563.971-.065 1.806-1.431-1.149-1.782.498.679-1.681z" fill="#000000" stroke="#000000" stroke-width=".180387" stroke-dasharray="0,18.30318202674076" stroke-dashoffset="18.303182"/><path d="M6.638 2.013l1.85.11L9.629.7l.465 1.749 1.742.618-1.563.971-.065 1.806-1.431-1.149-1.782.498.679-1.681z" fill="#ffffff" stroke="#000000" stroke-width=".180387" stroke-dasharray="0.010947151519062833,18.2922348752217" stroke-dashoffset=".010947"/><path d="M12.638 2.013l1.85.11L15.629.7l.465 1.749 1.742.618-1.563.971-.065 1.806-1.431-1.149-1.782.498.679-1.681z" fill="#ffffff" stroke="#000000" stroke-width=".180387" stroke-dasharray="0.04530894825495474,18.257873078485805" stroke-dashoffset=".045309"/><path d="M18.638 2.013l1.85.11L21.629.7l.465 1.749 1.742.618-1.563.971-.065 1.806-1.431-1.149-1.782.498.679-1.681z" fill="#ffffff" stroke="#000000" stroke-width=".180387" stroke-dasharray="0.10561324487241495,18.197568781868345" stroke-dashoffset=".105613"/><path d="M24.638 2.013l1.85.11L27.629.7l.465 1.749 1.742.618-1.563.971-.065 1.806-1.431-1.149-1.782.498.679-1.681z" fill="#ffffff" stroke="#000000" stroke-width=".180387" stroke-dasharray="0.19475967305139727,18.108422353689363" stroke-dashoffset=".19476"/><path d="M30.638 2.013l1.85.11L33.629.7l.465 1.749 1.742.618-1.563.971-.065 1.806-1.431-1.149-1.782.498.679-1.681z" fill="#ffffff" stroke="#000000" stroke-width=".180387" stroke-dasharray="0.31607594327085126,17.98710608346991" stroke-dashoffset=".316076"/><path d="M36.638 2.013l1.85.11L39.629.7l.465 1.749 1.742.618-1.563.971-.065 1.806-1.431-1.149-1.782.498.679-1.681z" fill="#ffffff" stroke="#000000" stroke-width=".180387" stroke-dasharray="0.47337546931783836,17.829806557422923" stroke-dashoffset=".473375"/><path d="M42.638 2.013l1.85.11L45.629.7l.465 1.749 1.742.618-1.563.971-.065 1.806-1.431-1.149-1.782.498.679-1.681z" fill="#ffffff" stroke="#000000" stroke-width=".180387" stroke-dasharray="0.6710086469923512,17.63217337974841" stroke-dashoffset=".671009"/><path d="M48.638 2.013l1.85.11L51.629.7l.465 1.749 1.742.618-1.563.971-.065 1.806-1.431-1.149-1.782.498.679-1.681z" fill="#ffffff" stroke="#000000" stroke-width=".180387" stroke-dasharray="0.9138926484822293,17.389289378258532" stroke-dashoffset=".913893"/><path d="M54.638 2.013l1.85.11L57.629.7l.465 1.749 1.742.618-1.563.971-.065 1.806-1.431-1.149-1.782.498.679-1.681z" fill="#ffffff" stroke="#000000" stroke-width=".180387" stroke-dasharray="1.2074918885571904,17.09569013818357" stroke-dashoffset="1.207492"/><path d="M60.638 2.013l1.85.11L63.629.7l.465 1.749 1.742.618-1.563.971-.065 1.806-1.431-1.149-1.782.498.679-1.681z" fill="#ffffff" stroke="#000000" stroke-width=".180387" stroke-dasharray="1.5577011212998473,16.745480905440914" stroke-dashoffset="1.557701"/><path d="M66.638 2.013l1.85.11L69.629.7l.465 1.749 1.742.618-1.563.971-.065 1.806-1.431-1.149-1.782.498.679-1.681z" fill="#ffffff" stroke="#000000" stroke-width=".180387" stroke-dasharray="1.9705545018924944,16.332627524848267" stroke-dashoffset="1.970555"/><path d="M72.638 2.013l1.85.11L75.629.7l.465 1.749 1.742.618-1.563.971-.065 1.806-1.431-1.149-1.782.498.679-1.681z" fill="#ffffff" stroke="#000000" stroke-width=".180387" stroke-dasharray="2.451652206112941,15.85152982062782" stroke-dashoffset="2.451652"/><path d="M78.638 2.013l1.85.11L81.629.7l.465 1.749 1.742.618-1.563.971-.065 1.806-1.431-1.149-1.782.498.679-1.681z" fill="#ffffff" stroke="#000000" stroke-width=".180387" stroke-dasharray="3.005183668551532,15.29799835818923" stroke-dashoffset="3.005184"/><path d="M84.638 2.013l1.85.11L87.629.7l.465 1.749 1.742.618-1.563.971-.065 1.806-1.431-1.149-1.782.498.679-1.681z" fill="#ffffff" stroke="#000000" stroke-width=".180387" stroke-dasharray="3.632487200220914,14.670694826519846" stroke-dashoffset="3.632487"/><path d="M90.638 2.013l1.85.11L93.629.7l.465 1.749 1.742.618-1.563.971-.065 1.806-1.431-1.149-1.782.498.679-1.681z" fill="#ffffff" stroke="#000000" stroke-width=".180387" stroke-dasharray="4.330301523867934,13.972880502872826" stroke-dashoffset="4.330302"/><path d="M96.638 2.013l1.85.11L99.629.7l.465 1.749 1.742.618-1.563.971-.065 1.806-1.431-1.149-1.782.498.679-1.681z" fill="#ffffff" stroke="#000000" stroke-width=".180387" stroke-dasharray="5.08926450544349,13.21391752129727" stroke-dashoffset="5.089265"/><path d="M102.638 2.013l1.85.11L105.629.7l.465 1.749 1.742.618-1.563.971-.065 1.806-1.431-1.149-1.782.498.679-1.681z" fill="#ffffff" stroke="#000000" stroke-width=".180387" stroke-dasharray="5.8935884375130145,12.409593589227745" stroke-dashoffset="5.893588"/><path d="M108.638 2.013l1.85.11L111.629.7l.465 1.749 1.742.618-1.563.971-.065 1.806-1.431-1.149-1.782.498.679-1.681z" fill="#ffffff" stroke="#000000" stroke-width=".180387" stroke-dasharray="6.7226802063991675,11.580501820341592" stroke-dashoffset="6.72268"/><path d="M114.638 2.013l1.85.11L117.629.7l.465 1.749 1.742.618-1.563.971-.065 1.806-1.431-1.149-1.782.498.679-1.681z" fill="#ffffff" stroke="#000000" stroke-width=".180387" stroke-dasharray="7.554483059730769,10.748698967009991" stroke-dashoffset="7.554483"/><path d="M120.638 2.013l1.85.11L123.629.7l.465 1.749 1.742.618-1.563.971-.065 1.806-1.431-1.149-1.782.498.679-1.681z" fill="#ffffff" stroke="#000000" stroke-width=".180387" stroke-dasharray="8.369161825912105,9.934020200828655" stroke-dashoffset="8.369162"/><path d="M126.638 2.013l1.85.11L129.629.7l.465 1.749 1.742.618-1.563.971-.065 1.806-1.431-1.149-1.782.498.679-1.681z" fill="#ffffff" stroke="#000000" stroke-width=".180387" stroke-dasharray="9.151591013370378,9.151591013370382" stroke-dashoffset="9.151591"/><path d="M132.638 2.013l1.85.11L135.629.7l.465 1.749 1.742.618-1.563.971-.065 1.806-1.431-1.149-1.782.498.679-1.681z" fill="#ffffff" stroke="#000000" stroke-width=".180387" stroke-dasharray="9.89205352953876,8.411128497202" stroke-dashoffset="9.892054"/><path d="M138.638 2.013l1.85.11L141.629.7l.465 1.749 1.742.618-1.563.971-.065 1.806-1.431-1.149-1.782.498.679-1.681z" fill="#ffffff" stroke="#000000" stroke-width=".180387" stroke-dasharray="10.585583737587982,7.71759828915278" stroke-dashoffset="10.585584"/><path d="M144.638 2.013l1.85.11L147.629.7l.465 1.749 1.742.618-1.563.971-.065 1.806-1.431-1.149-1.782.498.679-1.681z" fill="#ffffff" stroke="#000000" stroke-width=".180387" stroke-dasharray="11.230736336011212,7.072445690729549" stroke-dashoffset="11.230736"/><path d="M150.638 2.013l1.85.11L153.629.7l.465 1.749 1.742.618-1.563.971-.065 1.806-1.431-1.149-1.782.498.679-1.681z" fill="#ffffff" stroke="#000000" stroke-width=".180387" stroke-dasharray="11.82836034782377,6.47482167891699" stroke-dashoffset="11.82836"/><path d="M156.638 2.013l1.85.11L159.629.7l.465 1.749 1.742.618-1.563.971-.065 1.806-1.431-1.149-1.782.498.679-1.681z" fill="#ffffff" stroke="#000000" stroke-width=".180387" stroke-dasharray="12.38063352966793,5.92254849707283" stroke-dashoffset="12.380634"/><path d="M162.638 2.013l1.85.11L165.629.7l.465 1.749 1.742.618-1.563.971-.065 1.806-1.431-1.149-1.782.498.679-1.681z" fill="#ffffff" stroke="#000000" stroke-width=".180387" stroke-dasharray="12.890395484113997,5.412786542626764" stroke-dashoffset="12.890395"/><path d="M168.638 2.013l1.85.11L171.629.7l.465 1.749 1.742.618-1.563.971-.065 1.806-1.431-1.149-1.782.498.679-1.681z" fill="#ffffff" stroke="#000000" stroke-width=".180387" stroke-dasharray="13.360726066336424,4.942455960404335" stroke-dashoffset="13.360726"/><path d="M174.638 2.013l1.85.11L177.629.7l.465 1.749 1.742.618-1.563.971-.065 1.806-1.431-1.149-1.782.498.679-1.681z" fill="#ffffff" stroke="#000000" stroke-width=".180387" stroke-dasharray="13.794697534396617,4.508484492344144" stroke-dashoffset="13.794698"/><path d="M180.638 2.013l1.85.11L183.629.7l.465 1.749 1.742.618-1.563.971-.065 1.806-1.431-1.149-1.782.498.679-1.681z" fill="#ffffff" stroke="#000000" stroke-width=".180387" stroke-dasharray="14.19523985025749,4.10794217648327" stroke-dashoffset="14.19524"/><path d="M186.638 2.013l1.85.11L189.629.7l.465 1.749 1.742.618-1.563.971-.065 1.806-1.431-1.149-1.782.498.679-1.681z" fill="#ffffff" stroke="#000000" stroke-width=".180387" stroke-dasharray="14.565075665769637,3.7381063609711234" stroke-dashoffset="14.565076"/><path d="M192.638 2.013l1.85.11L195.629.7l.465 1.749 1.742.618-1.563.971-.065 1.806-1.431-1.149-1.782.498.679-1.681z" fill="#ffffff" stroke="#000000" stroke-width=".180387" stroke-dasharray="14.90669633928554,3.3964856874552205" stroke-dashoffset="14.906696"/><path d="M198.638 2.013l1.85.11L201.629.7l.465 1.749 1.742.618-1.563.971-.065 1.806-1.431-1.149-1.782.498.679-1.681z" fill="#ffffff" stroke="#000000" stroke-width=".180387" stroke-dasharray="15.222361014660725,3.080821012080036" stroke-dashoffset="15.222361"/><path d="M204.638 2.013l1.85.11L207.629.7l.465 1.749 1.742.618-1.563.971-.065 1.806-1.431-1.149-1.782.498.679-1.681z" fill="#ffffff" stroke="#000000" stroke-width=".180387" stroke-dasharray="15.514107871372174,2.789074155368587" stroke-dashoffset="15.514108"/><path d="M210.638 2.013l1.85.11L213.629.7l.465 1.749 1.742.618-1.563.971-.065 1.806-1.431-1.149-1.782.498.679-1.681z" fill="#ffffff" stroke="#000000" stroke-width=".180387" stroke-dasharray="15.783771124540742,2.519410902200018" stroke-dashoffset="15.783771"/><path d="M216.638 2.013l1.85.11L219.629.7l.465 1.749 1.742.618-1.563.971-.065 1.806-1.431-1.149-1.782.498.679-1.681z" fill="#ffffff" stroke="#000000" stroke-width=".180387" stroke-dasharray="16.033000096298355,2.2701819304424067" stroke-dashoffset="16.033"/><path d="M222.638 2.013l1.85.11L225.629.7l.465 1.749 1.742.618-1.563.971-.065 1.806-1.431-1.149-1.782.498.679-1.681z" fill="#ffffff" stroke="#000000" stroke-width=".180387" stroke-dasharray="16.263278329117533,2.039903697623226" stroke-dashoffset="16.263278"/><path d="M228.638 2.013l1.85.11L231.629.7l.465 1.749 1.742.618-1.563.971-.065 1.806-1.431-1.149-1.782.498.679-1.681z" fill="#ffffff" stroke="#000000" stroke-width=".180387" stroke-dasharray="16.475941686706477,1.8272403400342827" stroke-dashoffset="16.475942"/><path d="M234.638 2.013l1.85.11L237.629.7l.465 1.749 1.742.618-1.563.971-.065 1.806-1.431-1.149-1.782.498.679-1.681z" fill="#ffffff" stroke="#000000" stroke-width=".180387" stroke-dasharray="16.672194954151717,1.6309870725890423" stroke-dashoffset="16.672195"/><path d="M240.638 2.013l1.85.11L243.629.7l.465 1.749 1.742.618-1.563.971-.065 1.806-1.431-1.149-1.782.498.679-1.681z" fill="#ffffff" stroke="#000000" stroke-width=".180387" stroke-dasharray="16.85312676992225,1.450055256818511" stroke-dashoffset="16.853127"/><path d="M246.638 2.013l1.85.11L249.629.7l.465 1.749 1.742.618-1.563.971-.065 1.806-1.431-1.149-1.782.498.679-1.681z" fill="#ffffff" stroke="#000000" stroke-width=".180387" stroke-dasharray="17.01972289779286,1.2834591289478983" stroke-dashoffset="17.019723"/><path d="M252.638 2.013l1.85.11L255.629.7l.465 1.749 1.742.618-1.563.971-.065 1.806-1.431-1.149-1.782.498.679-1.681z" fill="#ffffff" stroke="#000000" stroke-width=".180387" stroke-dasharray="17.17287793681854,1.1303040899222199" stroke-dashoffset="17.172878"/><path d="M258.638 2.013l1.85.11L261.629.7l.465 1.749 1.742.618-1.563.971-.065 1.806-1.431-1.149-1.782.498.679-1.681z" fill="#ffffff" stroke="#000000" stroke-width=".180387" stroke-dasharray="17.31340560823877,0.9897764185019888" stroke-dashoffset="17.313406"/><path d="M264.638 2.013l1.85.11L267.629.7l.465 1.749 1.742.618-1.563.971-.065 1.806-1.431-1.149-1.782.498.679-1.681z" fill="#ffffff" stroke="#000000" stroke-width=".180387" stroke-dasharray="17.442047771094618,0.8611342556461415" stroke-dashoffset="17.442048"/><path d="M270.638 2.013l1.85.11L273.629.7l.465 1.749 1.742.618-1.563.971-.065 1.806-1.431-1.149-1.782.498.679-1.681z" fill="#ffffff" stroke="#000000" stroke-width=".180387" stroke-dasharray="17.55948231612311,0.7436997106176515" stroke-dashoffset="17.559482"/><path d="M276.638 2.013l1.85.11L279.629.7l.465 1.749 1.742.618-1.563.971-.065 1.806-1.431-1.149-1.782.498.679-1.681z" fill="#ffffff" stroke="#000000" stroke-width=".180387" stroke-dasharray="17.666330077606318,0.6368519491344429" stroke-dashoffset="17.66633"/><path d="M282.638 2.013l1.85.11L285.629.7l.465 1.749 1.742.618-1.563.971-.065 1.806-1.431-1.149-1.782.498.679-1.681z" fill="#ffffff" stroke="#000000" stroke-width=".180387" stroke-dasharray="17.763160889600595,0.5400211371401661" stroke-dashoffset="17.763161"/><path d="M288.638 2.013l1.85.11L291.629.7l.465 1.749 1.742.618-1.563.971-.065 1.806-1.431-1.149-1.782.498.679-1.681z" fill="#ffffff" stroke="#000000" stroke-width=".180387" stroke-dasharray="17.850498898774593,0.4526831279661666" stroke-dashoffset="17.850499"/><path d="M294.638 2.013l1.85.11L297.629.7l.465 1.749 1.742.618-1.563.971-.065 1.806-1.431-1.149-1.782.498.679-1.681z" fill="#ffffff" stroke="#000000" stroke-width=".180387" stroke-dasharray="17.92882723225152,0.37435479448924047" stroke-dashoffset="17.928827"/><path d="M300.638 2.013l1.85.11L303.629.7l.465 1.749 1.742.618-1.563.971-.065 1.806-1.431-1.149-1.782.498.679-1.681z" fill="#ffffff" stroke="#000000" stroke-width=".180387" stroke-dasharray="17.998592106032692,0.30458992070806734" stroke-dashoffset="17.998592"/><path d="M306.638 2.013l1.85.11L309.629.7l.465 1.749 1.742.618-1.563.971-.065 1.806-1.431-1.149-1.782.498.679-1.681z" fill="#ffffff" stroke="#000000" stroke-width=".180387" stroke-dasharray="18.06020644805239,0.2429755786883705" stroke-dashoffset="18.060206"/><path d="M312.638 2.013l1.85.11L315.629.7l.465 1.749 1.742.618-1.563.971-.065 1.806-1.431-1.149-1.782.498.679-1.681z" fill="#ffffff" stroke="#000000" stroke-width=".180387" stroke-dasharray="18.11405309974119,0.18912892699956735" stroke-dashoffset="18.114053"/><path d="M318.638 2.013l1.85.11L321.629.7l.465 1.749 1.742.618-1.563.971-.065 1.806-1.431-1.149-1.782.498.679-1.681z" fill="#ffffff" stroke="#000000" stroke-width=".180387" stroke-dasharray="18.160487651107186,0.14269437563357584" stroke-dashoffset="18.160488"/><path d="M324.638 2.013l1.85.11L327.629.7l.465 1.749 1.742.618-1.563.971-.065 1.806-1.431-1.149-1.782.498.679-1.681z" fill="#ffffff" stroke="#000000" stroke-width=".180387" stroke-dasharray="18.199840956675857,0.10334107006490459" stroke-dashoffset="18.199841"/><path d="M330.638 2.013l1.85.11L333.629.7l.465 1.749 1.742.618-1.563.971-.065 1.806-1.431-1.149-1.782.498.679-1.681z" fill="#ffffff" stroke="#000000" stroke-width=".180387" stroke-dasharray="18.232421373033212,0.07076065370754958" stroke-dashoffset="18.232421"/><path d="M336.638 2.013l1.85.11L339.629.7l.465 1.749 1.742.618-1.563.971-.065 1.806-1.431-1.149-1.782.498.679-1.681z" fill="#ffffff" stroke="#000000" stroke-width=".180387" stroke-dasharray="18.258516753060864,0.044665273679896325" stroke-dashoffset="18.258517"/><path d="M342.638 2.013l1.85.11L345.629.7l.465 1.749 1.742.618-1.563.971-.065 1.806-1.431-1.149-1.782.498.679-1.681z" fill="#ffffff" stroke="#000000" stroke-width=".180387" stroke-dasharray="18.278396227112157,0.024785799628603007" stroke-dashoffset="18.278396"/><path d="M348.638 2.013l1.85.11L351.629.7l.465 1.749 1.742.618-1.563.971-.065 1.806-1.431-1.149-1.782.498.679-1.681z" fill="#ffffff" stroke="#000000" stroke-width=".180387" stroke-dasharray="18.2923117972404,0.010870229500359388" stroke-dashoffset="18.292312"/><path d="M354.638 2.013l1.85.11L357.629.7l.465 1.749 1.742.618-1.563.971-.065 1.806-1.431-1.149-1.782.498.679-1.681z" fill="#ffffff" stroke="#000000" stroke-width=".180387" stroke-dasharray="18.30049976705304,0.0026822596877191848" stroke-dashoffset="18.3005"/><path d="M360.638 2.013l1.85.11L363.629.7l.465 1.749 1.742.618-1.563.971-.065 1.806-1.431-1.149-1.782.498.679-1.681zM366.638 2.013l1.85.11L369.629.7l.465 1.749 1.742.618-1.563.971-.065 1.806-1.431-1.149-1.782.498.679-1.681zM372.638 2.013l1.85.11L375.629.7l.465 1.749 1.742.618-1.563.971-.065 1.806-1.431-1.149-1.782.498.679-1.681zM378.638 2.013l1.85.11L381.629.7l.465 1.749 1.742.618-1.563.971-.065 1.806-1.431-1.149-1.782.498.679-1.681zM384.638 2.013l1.85.11L387.629.7l.465 1.749 1.742.618-1.563.971-.065 1.806-1.431-1.149-1.782.498.679-1.681zM390.638 2.013l1.85.11L393.629.7l.465 1.749 1.742.618-1.563.971-.065 1.806-1.431-1.149-1.782.498.679-1.681zM396.638 2.013l1.85.11L399.629.7l.465 1.749 1.742.618-1.563.971-.065 1.806-1.431-1.149-1.782.498.679-1.681z" fill="#ffffff" stroke="#000000" stroke-width=".180387"/><path d="M402.638 2.013l1.85.11L405.629.7l.465 1.749 1.742.618-1.563.971-.065 1.806-1.431-1.149-1.782.498.679-1.681z" fill="#fefefe" stroke="#000000" stroke-width=".180387"/><path d="M408.638 2.013l1.85.11L411.629.7l.465 1.749 1.742.618-1.563.971-.065 1.806-1.431-1.149-1.782.498.679-1.681z" fill="#fbfbfb" stroke="#000000" stroke-width=".180387"/><path d="M414.638 2.013l1.85.11L417.629.7l.465 1.749 1.742.618-1.563.971-.065 1.806-1.431-1.149-1.782.498.679-1.681z" fill="#f4f4f4" stroke="#000000" stroke-width=".180387"/><path d="M420.638 2.013l1.85.11L423.629.7l.465 1.749 1.742.618-1.563.971-.065 1.806-1.431-1.149-1.782.498.679-1.681z" fill="#e9e9e9" stroke="#000000" stroke-width=".180387"/><path d="M426.638 2.013l1.85.11L429.629.7l.465 1.749 1.742.618-1.563.971-.065 1.806-1.431-1.149-1.782.498.679-1.681z" fill="#d9d9d9" stroke="#000000" stroke-width=".180387"/><path d="M432.638 2.013l1.85.11L435.629.7l.465 1.749 1.742.618-1.563.971-.065 1.806-1.431-1.149-1.782.498.679-1.681z" fill="#c3c3c3" stroke="#000000" stroke-width=".180387"/><path d="M438.638 2.013l1.85.11L441.629.7l.465 1.749 1.742.618-1.563.971-.065 1.806-1.431-1.149-1.782.498.679-1.681z" fill="#a7a7a7" stroke="#000000" stroke-width=".180387"/><path d="M444.638 2.013l1.85.11L447.629.7l.465 1.749 1.742.618-1.563.971-.065 1.806-1.431-1.149-1.782.498.679-1.681z" fill="#8a8a8a" stroke="#000000" stroke-width=".180387"/><path d="M450.638 2.013l1.85.11L453.629.7l.465 1.749 1.742.618-1.563.971-.065 1.806-1.431-1.149-1.782.498.679-1.681z" fill="#707070" stroke="#000000" stroke-width=".180387"/><path d="M456.638 2.013l1.85.11L459.629.7l.465 1.749 1.742.618-1.563.971-.065 1.806-1.431-1.149-1.782.498.679-1.681z" fill="#5a5a5a" stroke="#000000" stroke-width=".180387"/><path d="M462.638 2.013l1.85.11L465.629.7l.465 1.749 1.742.618-1.563.971-.065 1.806-1.431-1.149-1.782.498.679-1.681z" fill="#484848" stroke="#000000" stroke-width=".180387"/><path d="M468.638 2.013l1.85.11L471.629.7l.465 1.749 1.742.618-1.563.971-.065 1.806-1.431-1.149-1.782.498.679-1.681z" fill="#393939" stroke="#000000" stroke-width=".180387"/><path d="M474.638 2.013l1.85.11L477.629.7l.465 1.749 1.742.618-1.563.971-.065 1.806-1.431-1.149-1.782.498.679-1.681z" fill="#2d2d2d" stroke="#000000" stroke-width=".180387"/><path d="M480.638 2.013l1.85.11L483.629.7l.465 1.749 1.742.618-1.563.971-.065 1.806-1.431-1.149-1.782.498.679-1.681z" fill="#232323" stroke="#000000" stroke-width=".180387"/><path d="M486.638 2.013l1.85.11L489.629.7l.465 1.749 1.742.618-1.563.971-.065 1.806-1.431-1.149-1.782.498.679-1.681z" fill="#1b1b1b" stroke="#000000" stroke-width=".180387"/><path d="M492.638 2.013l1.85.11L495.629.7l.465 1.749 1.742.618-1.563.971-.065 1.806-1.431-1.149-1.782.498.679-1.681z" fill="#141414" stroke="#000000" stroke-width=".180387"/><path d="M498.638 2.013l1.85.11L501.629.7l.465 1.749 1.742.618-1.563.971-.065 1.806-1.431-1.149-1.782.498.679-1.681z" fill="#0f0f0f" stroke="#000000" stroke-width=".180387"/><path d="M504.638 2.013l1.85.11L507.629.7l.465 1.749 1.742.618-1.563.971-.065 1.806-1.431-1.149-1.782.498.679-1.681z" fill="#0a0a0a" stroke="#000000" stroke-width=".180387"/><path d="M510.638 2.013l1.85.11L513.629.7l.465 1.749 1.742.618-1.563.971-.065 1.806-1.431-1.149-1.782.498.679-1.681z" fill="#070707" stroke="#000000" stroke-width=".180387"/><path d="M516.638 2.013l1.85.11L519.629.7l.465 1.749 1.742.618-1.563.971-.065 1.806-1.431-1.149-1.782.498.679-1.681z" fill="#040404" stroke="#000000" stroke-width=".180387"/><path d="M522.638 2.013l1.85.11L525.629.7l.465 1.749 1.742.618-1.563.971-.065 1.806-1.431-1.149-1.782.498.679-1.681z" fill="#020202" stroke="#000000" stroke-width=".180387"/><path d="M528.638 2.013l1.85.11L531.629.7l.465 1.749 1.742.618-1.563.971-.065 1.806-1.431-1.149-1.782.498.679-1.681z" fill="#010101" stroke="#000000" stroke-width=".180387"/><path d="M534.638 2.013l1.85.11L537.629.7l.465 1.749 1.742.618-1.563.971-.065 1.806-1.431-1.149-1.782.498.679-1.681zM540.638 2.013l1.85.11L543.629.7l.465 1.749 1.742.618-1.563.971-.065 1.806-1.431-1.149-1.782.498.679-1.681z" fill="#000000" stroke="#000000" stroke-width=".180387"/></svg>