<?xml version="1.0" encoding="UTF-8" standalone="no"?>
<!-- Created with Inkscape (http://www.inkscape.org/) -->

<svg
   xmlns:dc="http://purl.org/dc/elements/1.1/"
   xmlns:cc="http://creativecommons.org/ns#"
   xmlns:rdf="http://www.w3.org/1999/02/22-rdf-syntax-ns#"
   xmlns:svg="http://www.w3.org/2000/svg"
   xmlns="http://www.w3.org/2000/svg"
   xmlns:sodipodi="http://sodipodi.sourceforge.net/DTD/sodipodi-0.dtd"
   xmlns:inkscape="http://www.inkscape.org/namespaces/inkscape"
   width="24"
   height="24"
   viewBox="0 0 6.3499999 6.3500002"
   version="1.1"
   id="svg8"
   inkscape:version="0.92.4 (5da689c313, 2019-01-14)"
   sodipodi:docname="winner_cup2.svg">
  <defs
     id="defs2" />
  <sodipodi:namedview
     id="base"
     pagecolor="#ffffff"
     bordercolor="#666666"
     borderopacity="1.0"
     inkscape:pageopacity="0.0"
     inkscape:pageshadow="2"
     inkscape:zoom="11.313709"
     inkscape:cx="-17.035561"
     inkscape:cy="27.055485"
     inkscape:document-units="mm"
     inkscape:current-layer="layer1"
     showgrid="false"
     units="px"
     inkscape:window-width="1920"
     inkscape:window-height="1001"
     inkscape:window-x="-9"
     inkscape:window-y="-9"
     inkscape:window-maximized="1">
    <inkscape:grid
       type="xygrid"
       id="grid831" />
  </sodipodi:namedview>
  <metadata
     id="metadata5">
    <rdf:RDF>
      <cc:Work
         rdf:about="">
        <dc:format>image/svg+xml</dc:format>
        <dc:type
           rdf:resource="http://purl.org/dc/dcmitype/StillImage" />
        <dc:title />
      </cc:Work>
    </rdf:RDF>
  </metadata>
  <g
     inkscape:label="Layer 1"
     inkscape:groupmode="layer"
     id="layer1"
     transform="translate(0,-290.64998)">
    <rect
       style="opacity:1;fill:#000000;fill-opacity:1;stroke:#000000;stroke-width:0.1904798;stroke-linejoin:miter;stroke-miterlimit:4;stroke-dasharray:none"
       id="rect825"
       width="5.5797539"
       height="0.39373264"
       x="0.36009768"
       y="296.22327"
       rx="0.10079556"
       ry="0.035795774" />
    <rect
       style="opacity:1;fill:#000000;fill-opacity:1;stroke:#000000;stroke-width:0.1904798;stroke-linejoin:miter;stroke-miterlimit:4;stroke-dasharray:none"
       id="rect827"
       width="4.7472906"
       height="0.40498215"
       x="0.75383031"
       y="295.94202"
       rx="0.10079556"
       ry="0.035795774" />
    <rect
       style="opacity:1;fill:#000000;fill-opacity:1;stroke:#000000;stroke-width:0.20939168;stroke-linejoin:miter;stroke-miterlimit:4;stroke-dasharray:none"
       id="rect829"
       width="1.259944"
       height="1.174444"
       x="2.5545423"
       y="294.98849"
       rx="0.095670342"
       ry="0.045573972" />
    <path
       style="fill:none;stroke:#000000;stroke-width:0.23839797px;stroke-linecap:butt;stroke-linejoin:miter;stroke-opacity:1"
       d="M 2.5545424,294.98849 C 1.8779221,294.48451 1.7620252,294.12116 1.5663877,293.43202 1.3707502,292.74287 1.0717235,291.26435 1.0717235,291.01235"
       id="path835"
       inkscape:connector-curvature="0"
       sodipodi:nodetypes="czc" />
    <path
       style="fill:none;stroke:#000000;stroke-width:0.23839797px;stroke-linecap:butt;stroke-linejoin:miter;stroke-opacity:1"
       d="m 1.8640481,294.29126 c -0.2093187,-0.14477 -1.04940387,0.18845 -1.41182254,-1.75957 -0.36241865,-1.94801 0.79264124,-0.55577 0.79383394,-0.54568"
       id="path867"
       inkscape:connector-curvature="0"
       sodipodi:nodetypes="czc" />
    <path
       style="fill:none;stroke:#000000;stroke-width:0.23839797px;stroke-linecap:butt;stroke-linejoin:miter;stroke-opacity:1"
       d="m 3.8144864,294.98849 c 0.6766202,-0.50398 0.7925172,-0.86733 0.9881546,-1.55647 0.1956375,-0.68915 0.4946643,-2.16767 0.4946642,-2.41967"
       id="path835-5"
       inkscape:connector-curvature="0"
       sodipodi:nodetypes="czc" />
    <path
       style="fill:none;stroke:#000000;stroke-width:0.23839797px;stroke-linecap:butt;stroke-linejoin:miter;stroke-opacity:1"
       d="m 4.5049806,294.29126 c 0.2093187,-0.14477 1.049404,0.18845 1.4118227,-1.75957 0.3624186,-1.94801 -0.7926413,-0.55577 -0.793834,-0.54568"
       id="path867-6"
       inkscape:connector-curvature="0"
       sodipodi:nodetypes="czc" />
    <path
       style="fill:none;stroke:#000000;stroke-width:0.24319451px;stroke-linecap:butt;stroke-linejoin:miter;stroke-opacity:1"
       d="m 1.2704719,291.11257 c 0,0 -0.38159537,0.45556 1.9539668,0.45103 2.3355619,-0.005 1.8794503,-0.47859 1.8794503,-0.47859"
       id="path908"
       inkscape:connector-curvature="0"
       sodipodi:nodetypes="czc" />
    <path
       style="opacity:1;fill:#000000;fill-opacity:1;stroke:#000000;stroke-width:0.00595249;stroke-linejoin:miter;stroke-miterlimit:4;stroke-dasharray:none"
       d="m 5.1867801,291.01199 -0.00148,10e-4 h -0.0064 l -0.047248,0.0497 -4.921e-4,4.9e-4 -0.05217,0.0487 -0.00886,0.008 c -0.061519,0.0572 -0.1010669,0.0912 -0.1387909,0.11566 -2.893e-4,1.8e-4 -6.95e-4,7.9e-4 -9.843e-4,9.8e-4 -0.00418,0.003 -0.00948,0.004 -0.013781,0.006 -0.027665,0.0165 -0.058164,0.0292 -0.094496,0.0418 -0.00954,0.003 -0.018853,0.007 -0.028546,0.0103 -0.00805,0.003 -0.016381,0.005 -0.024608,0.007 -0.00134,4.1e-4 -0.00259,10e-4 -0.00394,10e-4 -0.013524,0.004 -0.027793,0.008 -0.041834,0.0113 -0.034735,0.009 -0.081436,0.0161 -0.1225492,0.0241 -0.06811,0.0126 -0.1386862,0.0248 -0.2249198,0.0359 -0.063036,0.008 -0.1344363,0.0153 -0.2062174,0.0226 -0.039841,0.004 -0.07897,0.008 -0.1195962,0.0118 -0.00401,3.5e-4 -0.00777,6.5e-4 -0.011812,9.9e-4 -0.027999,0.002 -0.053648,0.004 -0.083176,0.006 -0.1781042,0.009 -0.5428556,0.0121 -0.8755629,0.0113 -0.052785,4e-5 -0.08822,-2e-4 -0.1269787,-4.9e-4 -0.1693396,-0.001 -0.3233467,-0.003 -0.4503318,-0.008 -0.025209,-9.9e-4 -0.052362,-0.002 -0.076286,-0.003 -0.063819,-0.004 -0.1271066,-0.008 -0.1860386,-0.0128 -0.034961,-0.003 -0.070142,-0.005 -0.1028627,-0.008 -0.1048083,-0.0109 -0.1983029,-0.0242 -0.2844718,-0.0389 -0.00691,-10e-4 -0.014306,-0.003 -0.021163,-0.004 -0.038968,-0.007 -0.076595,-0.0165 -0.1141824,-0.0256 -0.056238,-0.0139 -0.1126807,-0.029 -0.1633991,-0.0467 -0.00905,-0.003 -0.020469,-0.006 -0.029038,-0.009 -0.00947,-0.004 -0.019743,-0.009 -0.02953,-0.0133 -0.023908,-0.0103 -0.048359,-0.0204 -0.068411,-0.0315 -0.00555,-0.003 -0.011034,-0.006 -0.017226,-0.01 -0.00685,-0.005 -0.018372,-0.0103 -0.021655,-0.0143 -0.00459,-0.006 -0.010195,-0.008 -0.014765,-0.01 -0.00109,-3.8e-4 -0.00259,-0.002 -0.00345,-0.002 -0.030162,-0.0221 -0.060972,-0.0464 -0.089574,-0.0709 -0.00343,-0.003 -0.00739,-0.005 -0.010828,-0.008 -3.473e-4,-2.9e-4 -6.481e-4,-6.9e-4 -9.844e-4,-9.8e-4 -3.753e-4,-3.5e-4 -3.631e-4,-7e-4 -4.921e-4,-9.9e-4 0,0 -4.922e-4,-4.9e-4 -4.922e-4,-4.9e-4 -0.039007,-0.0365 -0.076778,-0.0745 -0.076778,-0.0817 0,-4.8e-4 -0.00716,-5e-5 -0.00738,-4.9e-4 -0.00125,-10e-4 -0.00268,-0.003 -0.00591,-0.004 -0.00187,-5.7e-4 -6.675e-4,-0.002 -0.00345,-0.002 h -4.922e-4 -4.921e-4 c -0.015575,-0.002 -0.044352,-0.002 -0.1004019,-0.002 H 1.0717818 0.95267766 l 0.001476,0.0138 c 0,1.2e-4 -4.445e-5,10e-4 0,10e-4 2.8901e-4,0.002 0.001441,0.008 0.001476,0.009 2.775e-5,7.5e-4 9.3397e-4,0.007 9.8435e-4,0.008 6.17e-6,1.1e-4 -6.53e-6,8.7e-4 0,9.9e-4 -4.49e-6,6.3e-4 -1.056e-5,0.001 0,0.001 1.0636e-4,10e-4 4.63e-4,0.003 4.9216e-4,0.003 l 9.8432e-4,0.007 c 5.7773e-4,0.005 0.002292,0.0135 0.002953,0.0192 0.006244,0.0661 0.0276093,0.23362 0.0482322,0.35978 0.012938,0.0797 0.022565,0.14624 0.021163,0.14764 -0.00142,0.001 -0.0358926,-0.022 -0.0767779,-0.0522 -0.037268,-0.0275 -0.0820186,-0.0535 -0.12550229,-0.0773 -8.4502e-4,-4.7e-4 -0.001662,-9.6e-4 -0.002461,-10e-4 l -4.9216e-4,-4.9e-4 c -0.0578077,-0.0314 -0.11403165,-0.0574 -0.15454008,-0.0674 -0.004359,-0.001 -0.008469,-5.7e-4 -0.0127963,-0.001 L 0.6573769,291.388 c -9.3863e-4,-3.7e-4 -0.002102,-8.2e-4 -0.002953,-9.8e-4 -0.008507,-0.002 -0.0140574,-8.8e-4 -0.0216553,-0.002 -0.0165811,-0.002 -0.0332625,-0.005 -0.0492166,-0.004 h -4.9216e-4 c -0.002429,7e-5 -0.005144,9.4e-4 -0.007875,0.001 -4.9529e-4,2e-5 -9.8173e-4,-3e-5 -0.001477,0 -0.005191,2.6e-4 -0.00916,10e-4 -0.0142728,0.002 -5.1577e-4,5e-5 -9.6174e-4,-5e-5 -0.001476,0 -0.001137,1.2e-4 -0.002249,3.5e-4 -0.003445,5e-4 -8.7383e-4,10e-5 -0.00159,3.8e-4 -0.002461,4.9e-4 -0.0148416,0.002 -0.0297201,0.004 -0.0438027,0.008 -4.8921e-4,1.6e-4 -9.8888e-4,3.4e-4 -0.001477,5e-4 -0.002407,7.1e-4 -0.003906,7e-4 -0.006398,0.001 -0.002992,9.3e-4 -0.004826,0.002 -0.00689,0.003 h -4.9216e-4 l -4.9216e-4,4.9e-4 c -0.00427,0.002 -0.0103228,10e-4 -0.0142728,0.003 -0.001431,6.3e-4 -0.003443,0.003 -0.004922,0.003 -0.001164,2.9e-4 -0.002443,4.9e-4 -0.003445,9.8e-4 -0.002913,10e-4 -0.0055,0.004 -0.008367,0.005 -0.002739,10e-4 -0.005801,0.004 -0.008859,0.006 -0.004052,0.002 -0.007856,0.005 -0.011812,0.008 -0.003901,0.003 -0.0079,0.005 -0.0113198,0.008 -0.004674,0.004 -0.008764,0.008 -0.0132885,0.0118 -3.8972e-4,3.4e-4 -6.0454e-4,6.7e-4 -9.8432e-4,9.9e-4 -0.005776,0.005 -0.0101616,0.008 -0.0157493,0.0133 l -4.9219e-4,4.9e-4 c -4.6943e-4,3.3e-4 -9.9958e-4,5.3e-4 -0.001476,9.8e-4 -3.3394e-4,3.4e-4 -6.5162e-4,6.5e-4 -9.8433e-4,9.9e-4 -0.002309,0.002 -0.005121,0.004 -0.007382,0.006 l -4.9217e-4,5e-4 c -3.4127e-4,3.2e-4 -6.5224e-4,6.3e-4 -9.8433e-4,9.8e-4 -0.004476,0.005 -0.006682,0.0109 -0.0108277,0.0157 -0.001666,0.002 -0.003302,0.004 -0.004922,0.006 -0.0107461,0.0116 -0.0228897,0.0235 -0.0290378,0.034 -2.4704e-4,4.2e-4 -2.8427e-4,0.001 -4.9216e-4,0.001 -1.463e-4,3.3e-4 -3.6082e-4,6.5e-4 -4.9217e-4,9.9e-4 v 4.9e-4 c -0.0203768,0.0351 -0.0344589,0.0758 -0.0457714,0.12107 -8.544e-5,3.4e-4 -4.0721e-4,6.4e-4 -4.9216e-4,9.9e-4 -1.9868e-4,3e-4 -3.9783e-4,6e-4 -4.9217e-4,9.8e-4 -5.9642e-4,0.002 -0.001888,0.004 -0.002461,0.006 -1.6393e-4,5e-4 -3.5581e-4,9.5e-4 -4.9217e-4,10e-4 -2.5278e-4,7.2e-4 -7.6387e-4,0.001 -9.8433e-4,0.002 v 5e-4 c -7.9304e-4,0.003 -0.002205,0.006 -0.002953,0.009 -6.6102e-4,0.003 -6.9869e-4,0.009 -9.8433e-4,0.0138 -3.047e-5,5.3e-4 3.979e-5,9.9e-4 0,10e-4 -0.00359,0.0194 -0.004042,0.0478 -0.006398,0.0699 -4.452e-5,4.2e-4 4.41e-5,10e-4 0,10e-4 -8.702e-5,3.7e-4 -4.6101e-4,6.8e-4 -4.9217e-4,9.8e-4 -2.4085e-4,0.002 -3.0785e-4,0.004 -4.9216e-4,0.006 -7.19e-5,7.9e-4 7.477e-5,0.002 0,0.002 -4.325e-5,4.7e-4 4.433e-5,0.001 0,0.001 -0.003398,0.0342 -0.007907,0.0651 -0.008859,0.10631 -3.482e-5,0.001 3.311e-5,0.002 0,0.003 v 4.9e-4 c -3.6446e-4,0.0172 -0.001969,0.0306 -0.001969,0.0492 0,0.009 0.002313,0.0227 0.002461,0.032 1.048e-5,0.004 4.126e-5,0.009 0,0.0128 1.0535e-4,0.005 -6.2034e-4,0.007 -4.9216e-4,0.0118 3.469e-5,10e-4 4.5484e-4,0.003 4.9216e-4,0.004 5.365e-5,0.002 4.3307e-4,0.004 4.9217e-4,0.006 9.03e-6,3e-4 -9.17e-6,6.9e-4 0,9.9e-4 7.6907e-4,0.014 0.002311,0.0289 0.002953,0.0428 1.5579e-4,0.027 -6.055e-4,0.0557 0.001476,0.0783 5.7413e-4,0.006 0.001789,0.0141 0.002953,0.0216 6.856e-4,0.008 2.1395e-4,0.0174 9.8432e-4,0.0246 9.1844e-4,0.009 0.002945,0.0179 0.003937,0.0266 0.001019,0.0105 0.003385,0.0224 0.005414,0.034 6.4467e-4,0.006 0.002026,0.0126 0.002953,0.0187 9.906e-5,6.6e-4 4.1049e-4,10e-4 4.9217e-4,0.002 3.925e-5,3.1e-4 -3.507e-5,6.8e-4 0,9.8e-4 0.0133584,0.11661 0.0319889,0.2382 0.0565991,0.36421 1.957e-4,10e-4 2.9583e-4,0.002 4.9216e-4,0.003 3.183e-5,1.6e-4 -3.184e-5,3.3e-4 0,4.9e-4 -1.289e-5,1.7e-4 -3.276e-5,3.3e-4 0,4.9e-4 6.6299e-4,0.004 9.8052e-4,0.008 0.001969,0.0128 3.747e-4,0.002 5.9687e-4,0.004 9.8432e-4,0.005 2.288e-4,0.001 2.5946e-4,0.002 4.9217e-4,0.003 3.6383e-4,0.002 6.1361e-4,0.004 9.8433e-4,0.005 2.6981e-4,10e-4 7.1031e-4,0.003 9.8434e-4,0.004 0.003934,0.0195 0.008147,0.0381 0.0123041,0.0576 7.6913e-4,0.003 0.001704,0.007 0.002461,0.0103 5.887e-4,0.003 0.001386,0.005 0.001969,0.008 0.001154,0.007 0.002335,0.014 0.003937,0.0212 4.0324e-4,0.002 0.001064,0.003 0.001476,0.005 0.002601,0.0116 0.005557,0.0227 0.008367,0.034 0.009998,0.0437 0.0194946,0.0863 0.0305143,0.12944 7.3308e-4,0.003 0.001162,0.006 0.001969,0.009 0.003135,0.0123 0.006402,0.0231 0.009843,0.034 3.0271e-4,9.5e-4 6.8004e-4,0.002 9.8432e-4,0.003 3.5739e-4,10e-4 6.2712e-4,0.003 9.8432e-4,0.004 2.7398e-4,0.001 7.1023e-4,0.002 9.8434e-4,0.003 0.0109312,0.041 0.0217697,0.0794 0.0334673,0.1191 4.593e-5,1.6e-4 -4.597e-5,3.4e-4 0,5e-4 8.0767e-4,0.003 0.001631,0.006 0.002461,0.008 0.00752,0.027 0.0144319,0.055 0.0226396,0.0807 0.0111477,0.0349 0.0238052,0.0643 0.0354359,0.0974 0.007755,0.0235 0.0149183,0.0494 0.0231318,0.0714 l 4.9219e-4,4.9e-4 c 0.001297,0.003 0.002143,0.008 0.003445,0.0113 0.003746,0.01 0.008495,0.0174 0.0123042,0.0271 3.198e-4,9.8e-4 6.2556e-4,0.002 9.8432e-4,0.003 4.1976e-4,0.001 0.001056,0.002 0.001476,0.003 0.003287,0.008 0.006044,0.019 0.009351,0.0271 0.001841,0.004 0.003918,0.008 0.005906,0.0123 0.009168,0.0224 0.0190798,0.043 0.0285456,0.0645 0.003498,0.01 0.007017,0.0202 0.0108277,0.0285 0.00565,0.0124 0.0120479,0.0205 0.017718,0.0325 0.005159,0.0116 0.009863,0.024 0.0152571,0.0349 0.002711,0.006 0.0055,0.0125 0.008367,0.0182 0.002539,0.005 0.005572,0.009 0.008367,0.0138 0.001846,0.004 0.003978,0.006 0.005906,0.01 2.8598e-4,5.5e-4 6.9818e-4,9.3e-4 9.8431e-4,0.001 0.076519,0.14597 0.16178794,0.27165 0.25740273,0.37306 6.9352e-4,7.4e-4 0.001274,0.002 0.001969,0.002 3.0506e-4,3.2e-4 6.7909e-4,6.6e-4 9.8435e-4,9.8e-4 8.3887e-4,9.2e-4 0.00161,0.002 0.002461,0.003 0.00152,0.002 0.0029,0.003 0.004429,0.005 l 4.9216e-4,4.9e-4 c 3.2453e-4,3.4e-4 6.5809e-4,6.5e-4 9.8434e-4,9.9e-4 0.00626,0.006 0.0128538,0.0124 0.0191945,0.0187 2.4685e-4,2.4e-4 2.4519e-4,7.4e-4 4.9216e-4,9.8e-4 1.1226e-4,2e-4 3.3273e-4,3.4e-4 4.9216e-4,4.9e-4 0,0 4.9219e-4,5e-4 4.9219e-4,5e-4 0.001565,0.002 0.00325,0.004 0.004922,0.005 5.0753e-4,5e-4 9.6845e-4,9.8e-4 0.001477,0.001 0.001367,10e-4 0.003007,0.002 0.004429,0.003 0.001235,10e-4 0.002253,0.002 0.003445,0.003 l 4.9216e-4,4.9e-4 c 0.002499,0.002 0.004889,0.004 0.007382,0.006 0.003963,0.004 0.008157,0.007 0.0123041,0.0103 9.921e-4,8e-4 0.00197,0.002 0.00295,0.002 0.00268,0.002 0.00524,0.005 0.00787,0.007 0.042662,0.0381 0.086297,0.0733 0.1323927,0.10336 6.815e-4,4.4e-4 0.00129,10e-4 0.00197,10e-4 6.486e-4,5e-4 0.00129,10e-4 0.00197,10e-4 1.108e-4,7e-5 3.812e-4,-7e-5 4.921e-4,0 0.021434,0.0138 0.043778,0.0258 0.06595,0.0379 0.016031,0.01 0.031554,0.0197 0.048724,0.0276 6.565e-4,3.3e-4 0.0013,6.8e-4 0.00197,9.8e-4 4.484e-4,2.1e-4 0.00103,2.9e-4 0.00148,5e-4 5.233e-4,2.6e-4 9.457e-4,7.3e-4 0.00148,9.8e-4 0.00693,0.003 0.01425,0.005 0.021655,0.008 0.012514,0.006 0.025828,0.01 0.038389,0.0148 0.015818,0.007 0.031252,0.0152 0.04774,0.0207 0.00634,0.002 0.014486,0.004 0.020671,0.006 0.00147,4.6e-4 0.00327,0.001 0.00492,0.001 9.779e-4,3e-4 0.00225,7.2e-4 0.00345,9.9e-4 4.052e-4,1.2e-4 0.00107,3.7e-4 0.00148,4.9e-4 6.557e-4,2e-4 0.0018,3e-4 0.00246,4.9e-4 0.038859,0.0116 0.091283,0.0229 0.1442046,0.034 3.388e-4,7e-5 6.446e-4,-7e-5 9.843e-4,0 9.929e-4,2.5e-4 0.00185,7.6e-4 0.00295,9.9e-4 0.0034,8.4e-4 0.00668,0.002 0.010336,0.002 0.00993,0.002 0.015535,0.004 0.026085,0.006 9.39e-4,1.8e-4 0.00116,3.5e-4 0.00197,5e-4 0.00535,10e-4 0.00776,0.002 0.013289,0.003 0.084495,0.016 0.1315271,0.0269 0.166352,0.0443 6.409e-4,3.6e-4 0.00133,6.7e-4 0.00197,9.9e-4 0.00212,10e-4 0.00388,0.003 0.00591,0.004 0.014479,0.008 0.027852,0.017 0.039865,0.029 0.013812,0.0139 0.027152,0.0308 0.043311,0.0527 4.134e-4,5.2e-4 5.749e-4,9.7e-4 9.844e-4,0.001 0.011531,0.0145 0.017559,0.0214 0.031007,0.0389 0.00322,0.004 0.00417,0.005 0.00738,0.009 7.829e-4,0.001 0.00216,0.002 0.00295,0.003 0.00107,10e-4 0.00209,0.003 0.00345,0.004 0.00109,0.001 0.00334,0.004 0.00541,0.006 0.00136,10e-4 0.00268,0.003 0.00345,0.004 0.069146,0.086 0.1503852,0.17191 0.2382082,0.2574 0.00322,0.003 0.00661,0.006 0.00984,0.009 0.050062,0.0487 0.1003116,0.0974 0.1535557,0.14224 5.314e-4,4.5e-4 9.449e-4,10e-4 0.00148,10e-4 0.00195,0.002 0.00399,0.004 0.00591,0.005 l 0.00886,0.007 c 0.0048,0.004 0.00897,0.009 0.013781,0.0128 l 0.036912,0.0295 0.00886,0.008 c 4.401e-4,3.5e-4 0.00104,6.4e-4 0.00148,9.8e-4 l 0.00738,0.006 0.00148,9.9e-4 0.00246,0.002 0.03642,0.0305 9.843e-4,0.39275 4.922e-4,0.39914 -0.8406192,0.002 -0.84061916,0.002 -0.0349437,0.0197 c -0.0136296,0.008 -0.0237408,0.0144 -0.032483,0.0216 -0.0121459,0.01 -0.0190974,0.0243 -0.0246083,0.0394 l -4.9216e-4,4.9e-4 c -0.002528,0.007 -0.003084,0.024 -0.004922,0.0335 -0.003025,0.0182 -0.007483,0.0301 -0.008859,0.0605 v 0.004 l -0.003937,0.0881 -0.11024514,0.005 c -0.0104036,5.3e-4 -0.0107197,10e-4 -0.0201788,0.002 l -0.0152571,9.9e-4 c -0.00602,3.5e-4 -0.006188,6.4e-4 -0.011812,9.8e-4 -0.009856,2.9e-4 -0.0188303,0.001 -0.0275613,0.001 -0.031824,4.3e-4 -0.0473169,0.005 -0.0674267,0.008 -0.007406,10e-4 -0.0170317,0.002 -0.0260848,0.003 -0.00103,1.4e-4 -0.001939,3.6e-4 -0.002953,4.9e-4 -0.001127,2.6e-4 -0.004321,2.3e-4 -0.005414,4.9e-4 -0.002253,5.6e-4 -0.008222,8.9e-4 -0.0103355,10e-4 -1.6905e-4,5e-5 -3.2396e-4,-5e-5 -4.9216e-4,0 -3.7252e-4,-2e-5 -7.8949e-4,-5e-5 -9.8433e-4,0 -0.003526,3.5e-4 -0.007617,6.6e-4 -0.008367,9.9e-4 -0.002673,0.001 -0.005041,0.003 -0.007382,0.005 -0.004055,0.002 -0.007089,0.005 -0.0108276,0.007 -0.006011,0.003 -0.0131648,0.007 -0.0182101,0.0113 -7.939e-5,7e-5 -4.1294e-4,-7e-5 -4.9217e-4,0 -3.8369e-4,2.5e-4 -6.7239e-4,7e-4 -9.8433e-4,9.8e-4 -0.003589,0.003 -0.007146,0.006 -0.0108276,0.01 -6.4468e-4,7e-4 -8.1549e-4,0.002 -0.001476,0.003 -3.8487e-4,4.4e-4 -6.0007e-4,10e-4 -9.8434e-4,10e-4 -2.2234e-4,2.7e-4 -3.5807e-4,6.3e-4 -4.9216e-4,9.9e-4 -1.3408e-4,3.5e-4 -2.6653e-4,7.1e-4 -4.9217e-4,9.8e-4 -0.003294,0.004 -0.00694,0.006 -0.0103355,0.0108 -0.001651,0.002 -0.001609,0.008 -0.002953,0.01 v 5e-4 c -1.4062e-4,2.4e-4 -3.5471e-4,7.4e-4 -4.9216e-4,9.8e-4 -0.002884,0.004 -0.006941,0.009 -0.008367,0.0123 -1.2542e-4,3.4e-4 1.2256e-4,0.004 0,0.004 l -4.9216e-4,5e-4 c -7.557e-5,2.7e-4 7.418e-5,0.002 0,0.002 -8.2548e-4,0.002 -0.004029,0.006 -0.00443,0.008 -0.001493,0.008 -6.3731e-4,0.0694 -9.8433e-4,0.11271 -4.2364e-4,0.024 -0.002469,0.0302 -0.002461,0.064 1.418e-5,0.0554 0.002618,0.0848 0.004922,0.11812 1.2498e-4,0.002 3.7018e-4,0.005 4.9216e-4,0.006 0.001092,0.0205 1.0577e-4,0.0674 0.001969,0.0743 1.4872e-4,5.6e-4 8.242e-4,9.3e-4 9.8433e-4,10e-4 2.118e-5,1.7e-4 -2.666e-5,8.9e-4 0,9.9e-4 8.5552e-4,0.003 0.003509,0.006 0.005906,0.008 0.001551,0.004 0.001872,0.0122 0.003937,0.0153 0.004585,0.007 0.0126888,0.0123 0.0196866,0.0182 l 4.9217e-4,4.9e-4 c 0.003291,0.003 0.006108,0.006 0.009843,0.009 0.006229,0.005 0.0152719,0.007 0.0226396,0.0113 0.007688,0.004 0.0148341,0.009 0.023624,0.0118 0.001465,5.3e-4 0.002444,10e-4 0.003937,0.002 2.062e-4,10e-5 2.6469e-4,4.2e-4 4.9217e-4,4.9e-4 3.3092e-4,1.7e-4 6.0866e-4,3.7e-4 9.8433e-4,4.9e-4 3.3789e-4,1.6e-4 6.2131e-4,3.8e-4 9.8433e-4,5e-4 0.003023,9.6e-4 0.004744,0.003 0.007875,0.004 1.556e-5,10e-6 0.001461,0 0.001476,0 0.001582,4.2e-4 0.002841,0.002 0.00443,0.002 2.291e-5,10e-6 0.003419,0 0.003445,0 0.001262,5.7e-4 0.002523,10e-4 0.003937,10e-4 0.007226,0.002 0.82572858,0.002 1.54146338,0.002 0.4261137,10e-4 0.2631577,0.004 1.2190946,0.004 0.8050186,1.6e-4 1.0572136,-0.001 1.350503,-0.002 l 0.3459926,-4.9e-4 h 0.069396 l 1.0015573,-5e-4 0.020671,-0.0103 c 4.037e-4,-10e-6 0.00293,1e-5 0.00295,0 0.00207,-9e-4 0.00384,-0.003 0.00591,-0.004 l 9.842e-4,-4.9e-4 c 0.00293,-6.3e-4 0.00253,-0.002 0.00492,-0.002 0.024809,-0.007 0.0255,-0.0158 0.037405,-0.0281 8.855e-4,-9.1e-4 0.00108,-0.002 0.00197,-0.003 2.593e-4,-2.7e-4 7.295e-4,-2.2e-4 9.845e-4,-4.9e-4 0.00126,-10e-4 0.00208,-0.003 0.00295,-0.004 v -5e-4 c 0.00338,-0.004 0.00951,-0.006 0.011812,-0.01 0.00396,-0.006 0.00434,-0.0143 0.00689,-0.0197 1.948e-4,-3e-4 2.827e-4,-6.7e-4 4.921e-4,-9.8e-4 v -4.9e-4 c 2.137e-4,-3.1e-4 2.649e-4,-6.8e-4 4.922e-4,-9.9e-4 v -4.9e-4 c 2.31e-4,-3e-4 2.479e-4,-6.8e-4 4.921e-4,-9.8e-4 0,0 4.924e-4,-4.9e-4 4.924e-4,-4.9e-4 0.0027,-0.003 0.00603,-0.006 0.00689,-0.009 2.8e-5,-10e-5 -2.17e-5,-7.8e-4 0,-9.8e-4 2.825e-4,-9.8e-4 2.58e-4,-0.008 4.921e-4,-0.01 v -5e-4 -4.9e-4 c 0.00266,-0.0207 0.00393,-0.0663 0.00492,-0.12698 2.54e-5,-0.002 -7.59e-5,-0.002 0,-0.003 2.22e-5,-10e-4 3.596e-4,-0.002 4.921e-4,-0.003 1.49e-5,-9.4e-4 -1.48e-5,-0.001 0,-0.002 1.079e-4,-0.007 3.79e-4,-0.007 4.922e-4,-0.0143 3.95e-5,-0.002 -3.68e-5,-0.002 0,-0.005 7.66e-5,-0.0175 1.632e-4,-0.0218 0,-0.0394 -7.54e-5,-0.009 -6.63e-4,-0.0137 -9.843e-4,-0.0197 4.18e-5,-0.0149 -0.00133,-0.0238 -0.00148,-0.0379 -1.74e-5,-6.8e-4 1.67e-5,-10e-4 0,-0.002 -3.8e-5,-0.002 3.48e-5,-0.003 0,-0.004 -8.99e-5,-0.003 -4.157e-4,-0.006 -4.921e-4,-0.009 -9.996e-4,-0.0271 -7.358e-4,-0.0677 -0.00394,-0.0842 v -5e-4 c 7.3e-6,-5.2e-4 5.54e-5,-10e-4 0,-10e-4 -1.684e-4,-0.003 -2.243e-4,-0.008 -4.922e-4,-0.009 -8.761e-4,-0.003 -0.00308,-0.005 -0.00443,-0.008 -1.154e-4,-4e-4 -3.747e-4,-5.9e-4 -4.922e-4,-9.8e-4 -5.377e-4,-0.002 -0.00138,-0.003 -0.00197,-0.004 -1.87e-4,-4.8e-4 -2.979e-4,-10e-4 -4.922e-4,-10e-4 -1.371e-4,-3.4e-4 -3.502e-4,-6.4e-4 -4.921e-4,-9.8e-4 -0.00269,-0.006 -0.00622,-0.0134 -0.00984,-0.0187 -1.978e-4,-2.8e-4 -2.91e-4,-6.9e-4 -4.921e-4,-9.8e-4 -0.00144,-0.002 -0.00238,-0.005 -0.00394,-0.007 -0.00256,-0.004 -0.00535,-0.007 -0.00837,-0.0103 -0.00153,-10e-4 -0.00229,-0.003 -0.00394,-0.005 -0.00814,-0.007 -0.017539,-0.0127 -0.028053,-0.0177 -9.284e-4,-5.8e-4 -0.00168,-0.001 -0.00246,-0.002 h -4.921e-4 c -0.00106,-8.2e-4 -0.00199,-0.002 -0.00344,-0.002 -0.00414,-0.002 -0.011733,-0.003 -0.018702,-0.004 -0.00321,-10e-4 -0.00559,-0.004 -0.00886,-0.005 -0.00165,-4.1e-4 -0.00704,-7.3e-4 -0.011812,-9.8e-4 -3.873e-4,-8e-5 -0.00109,7e-5 -0.00148,0 -0.00134,-2.5e-4 -0.00501,-2.5e-4 -0.0064,-4.9e-4 -5.317e-4,-10e-5 -0.00192,-4e-4 -0.00246,-5e-4 -9.006e-4,-2.5e-4 -0.00176,-3.7e-4 -0.00295,-4.9e-4 -2.752e-4,-3e-5 -0.0012,-4.6e-4 -0.00148,-4.9e-4 -0.00407,-3.8e-4 -0.012478,-7.3e-4 -0.020179,-9.9e-4 -0.00109,-1.4e-4 -0.00332,1.5e-4 -0.00443,0 -0.00346,-3.5e-4 -0.00757,-5.5e-4 -0.010828,-9.8e-4 -9.263e-4,-1.1e-4 -0.0025,-3.9e-4 -0.00345,-4.9e-4 -0.014021,-0.002 -0.026623,-0.004 -0.047248,-0.004 -0.00579,-6e-5 -0.013065,-6e-4 -0.020179,-9.9e-4 -0.00149,-8e-5 -0.00242,9e-5 -0.00394,0 -0.00242,-1.4e-4 -0.00448,-3.6e-4 -0.00689,-4.9e-4 -0.018501,-9.9e-4 -0.023515,-0.003 -0.046264,-0.004 l -0.1417438,-0.005 -0.00443,-0.0881 v -0.004 c -0.00129,-0.0285 -0.0057,-0.0389 -0.00837,-0.0566 -1.736e-4,-10e-4 -3.75e-4,-0.002 -4.922e-4,-0.003 -4.81e-5,-2.9e-4 -1.66e-5,-6.5e-4 0,-9.9e-4 -4.86e-5,-2.8e-4 4.94e-5,-6.9e-4 0,-9.8e-4 -2.008e-4,-0.001 -2.789e-4,-0.003 -4.921e-4,-0.004 -0.001,-0.0101 -0.00186,-0.0219 -0.00394,-0.0281 -1.25e-4,-3.5e-4 -3.649e-4,-6.3e-4 -4.922e-4,-9.8e-4 -0.00537,-0.0145 -0.012558,-0.0282 -0.024116,-0.0379 v -4.9e-4 l -4.924e-4,-5e-4 -4.922e-4,-4.9e-4 c -0.00867,-0.007 -0.019077,-0.0136 -0.032483,-0.0212 l -0.034452,-0.0197 h -0.00787 l -0.7776218,-0.002 h -0.00394 l -0.7815594,-0.002 v -0.3957 -9.8e-4 l 4.921e-4,-0.39423 0.019195,-0.0152 0.019687,-0.0148 c 0.00339,-0.003 0.011892,-0.0103 0.015749,-0.0133 l 0.022147,-0.0177 0.00345,-0.003 0.023624,-0.0187 c 0.00635,-0.005 0.015201,-0.0133 0.023132,-0.0207 0.03144,-0.026 0.059579,-0.0534 0.089574,-0.0802 0.035916,-0.0317 0.066041,-0.0542 0.090558,-0.0778 0.00229,-0.002 0.00458,-0.005 0.00689,-0.007 l 4.921e-4,-4.9e-4 c 4.781e-4,-5e-4 0.001,-0.001 0.00148,-0.001 3.886e-4,-3.7e-4 0.00104,-5.9e-4 0.00148,-9.8e-4 0.00123,-0.001 0.00271,-0.003 0.00394,-0.004 0.00248,-0.002 0.0049,-0.005 0.00738,-0.008 0.00149,-0.001 0.00294,-0.003 0.00443,-0.005 0.046008,-0.0454 0.093433,-0.0976 0.1412516,-0.15404 0,0 4.921e-4,-5e-4 4.921e-4,-5e-4 5.932e-4,-7e-4 0.00138,-0.001 0.00197,-0.002 2.303e-4,-2.7e-4 2.621e-4,-7.1e-4 4.924e-4,-9.8e-4 0.00205,-0.002 0.00454,-0.004 0.0064,-0.006 0.00847,-0.009 0.017893,-0.0181 0.02264,-0.0241 0.01303,-0.0164 0.028505,-0.0382 0.043803,-0.0596 0.00908,-0.0117 0.017936,-0.0213 0.027069,-0.0335 0.02845,-0.0378 0.05541,-0.0663 0.07284,-0.0817 0,0 4.923e-4,-5e-4 4.923e-4,-5e-4 0.00671,-0.006 0.013094,-0.012 0.021163,-0.0162 0.00242,-9.8e-4 0.00446,-0.003 0.00689,-0.003 0.00475,-0.002 0.012771,-0.004 0.01821,-0.006 0.028251,-0.0111 0.061066,-0.019 0.1314085,-0.0315 0.00106,-1.8e-4 8.963e-4,-3e-4 0.00197,-4.9e-4 0.014241,-0.003 0.022081,-0.004 0.038881,-0.007 0.00443,-8.3e-4 0.00792,-0.002 0.012304,-0.003 0.00214,-4.2e-4 0.00175,-5.6e-4 0.00394,-9.9e-4 0.062298,-0.0122 0.1201052,-0.0268 0.1742266,-0.0443 1.504e-4,-5e-5 3.422e-4,5e-5 4.924e-4,0 5.1e-4,-1.7e-4 9.669e-4,-3.3e-4 0.00148,-5e-4 0.0058,-10e-4 0.011935,-0.002 0.014765,-0.003 0.00588,-0.002 0.011244,-0.005 0.016734,-0.007 0.00931,-0.003 0.016966,-0.008 0.026085,-0.0118 0.00224,-8.5e-4 0.00431,-0.002 0.0064,-0.003 9.78e-4,-4.9e-4 0.00191,-0.001 0.00295,-0.001 0.039853,-0.0157 0.078791,-0.033 0.1151668,-0.0527 0.00152,-6e-4 0.00305,-0.001 0.00443,-0.002 0.00542,-0.003 0.01189,-0.005 0.017226,-0.008 0.00887,-0.005 0.017762,-0.0118 0.026577,-0.0172 0.00319,-0.002 0.00629,-0.004 0.00935,-0.006 8.509e-4,-6.2e-4 0.00159,-10e-4 0.00246,-0.002 6.043e-4,-4.1e-4 0.00136,-5.9e-4 0.00197,-9.9e-4 3.062e-4,-1.9e-4 6.766e-4,-3e-4 9.843e-4,-4.9e-4 0.016466,-0.0105 0.033271,-0.0209 0.049217,-0.0325 1.716e-4,-1.3e-4 2.843e-4,-4.1e-4 4.921e-4,-4.9e-4 1.019e-4,-8e-5 3.904e-4,7e-5 4.922e-4,0 0.00103,-5.9e-4 0.002,-10e-4 0.00295,-0.002 0.00149,-10e-4 0.00294,-0.002 0.00443,-0.003 0.012221,-0.009 0.019735,-0.0167 0.030514,-0.0251 0.00284,-0.002 0.00569,-0.004 0.00837,-0.006 0.00296,-0.002 0.00589,-0.004 0.00886,-0.006 0.00174,-10e-4 0.00318,-0.003 0.00492,-0.005 0.00158,-10e-4 0.00294,-0.003 0.00443,-0.004 0.00701,-0.006 0.014119,-0.01 0.021163,-0.0162 0.00219,-0.002 0.00426,-0.004 0.0064,-0.006 4.924e-4,-4.9e-4 9.734e-4,-10e-4 0.00148,-10e-4 7.978e-4,-7.2e-4 0.00163,-10e-4 0.00246,-0.002 7.983e-4,-7.2e-4 0.00162,-10e-4 0.00246,-0.002 1.722e-4,-1.6e-4 2.984e-4,-3.8e-4 4.922e-4,-5e-4 2.719e-4,-2.5e-4 7.126e-4,-2.4e-4 9.842e-4,-4.9e-4 0.00159,-10e-4 0.00333,-0.002 0.00492,-0.004 3.268e-4,-3e-4 6.582e-4,-6.7e-4 9.843e-4,-9.8e-4 0.012822,-0.0119 0.024843,-0.027 0.037404,-0.0399 0.00463,-0.005 0.00937,-0.01 0.013781,-0.0143 0.00651,-0.007 0.013258,-0.0138 0.019687,-0.0212 0.00781,-0.009 0.015363,-0.0166 0.023132,-0.0251 0.00286,-0.003 0.0052,-0.006 0.00837,-0.009 4.283e-4,-5.2e-4 0.00105,-9.6e-4 0.00148,-0.001 0.015546,-0.0186 0.030189,-0.04 0.045279,-0.06 4.864e-4,-6.5e-4 9.906e-4,-10e-4 0.00148,-0.002 0.00292,-0.004 0.00595,-0.008 0.00886,-0.0118 0.00364,-0.004 0.00744,-0.008 0.010828,-0.0128 0.0032,-0.004 0.00633,-0.009 0.00935,-0.0143 l 4.924e-4,-5e-4 c 5.292e-4,-7.5e-4 9.482e-4,-0.002 0.00148,-0.002 l 4.922e-4,-4.9e-4 c 0.00171,-0.002 0.00322,-0.005 0.00492,-0.008 6.489e-4,-9.5e-4 0.00132,-0.002 0.00197,-0.003 0.022546,-0.0329 0.04404,-0.0681 0.065458,-0.10434 0.00119,-0.002 0.00275,-0.004 0.00394,-0.006 0.0029,-0.005 0.00597,-0.009 0.00886,-0.0143 7.142e-4,-10e-4 0.00126,-0.002 0.00197,-0.003 0.00346,-0.005 0.00706,-0.0104 0.010336,-0.0162 5.97e-4,-10e-4 0.00137,-0.002 0.00197,-0.003 9.233e-4,-0.002 0.00202,-0.003 0.00295,-0.005 0.00148,-0.003 0.00295,-0.006 0.00443,-0.008 0.00136,-0.002 0.00261,-0.005 0.00394,-0.008 3.407e-4,-6.3e-4 6.577e-4,-10e-4 9.845e-4,-0.002 8.586e-4,-0.002 0.0016,-0.003 0.00246,-0.005 0.00188,-0.003 0.00355,-0.007 0.00541,-0.0108 0.00683,-0.0128 0.01348,-0.0257 0.020179,-0.0389 0.0011,-0.002 0.00232,-0.004 0.00345,-0.006 0.00284,-0.005 0.00562,-0.0107 0.00837,-0.0162 4.128e-4,-8.3e-4 0.00106,-0.002 0.00148,-0.002 0.00162,-0.003 0.00287,-0.007 0.00443,-0.0108 1.464e-4,-3.3e-4 3.407e-4,-6.8e-4 4.921e-4,-9.9e-4 3.513e-4,-6.3e-4 6.232e-4,-0.001 9.846e-4,-0.002 3.598e-4,-6.2e-4 6.125e-4,-0.001 9.842e-4,-0.002 1.855e-4,-3e-4 3.019e-4,-6.8e-4 4.922e-4,-9.8e-4 0.0013,-0.002 0.00276,-0.004 0.00394,-0.006 0.00121,-0.003 0.00229,-0.005 0.00345,-0.008 0.00912,-0.0191 0.018222,-0.0383 0.027069,-0.0581 4.375e-4,-9.8e-4 0.00104,-0.002 0.00148,-0.003 0.00313,-0.007 0.00631,-0.0141 0.00935,-0.0212 v -4.9e-4 c 0.00177,-0.004 0.00365,-0.008 0.00541,-0.0118 1.371e-4,-3.2e-4 3.555e-4,-6.6e-4 4.921e-4,-9.8e-4 3.273e-4,-7.7e-4 6.575e-4,-0.002 9.843e-4,-0.002 8.477e-4,-0.002 0.00162,-0.004 0.00246,-0.006 0.038056,-0.0896 0.072609,-0.18764 0.1053233,-0.28989 3.964e-4,-0.001 0.00102,-0.002 0.00148,-0.003 4.666e-4,-10e-4 0.00101,-0.003 0.00148,-0.004 0.00249,-0.008 0.00454,-0.0161 0.00689,-0.0241 0.036422,-0.11726 0.070342,-0.24029 0.099417,-0.37257 1.081e-4,-4.9e-4 3.85e-4,-9.8e-4 4.921e-4,-10e-4 0.00571,-0.026 0.010822,-0.0536 0.016241,-0.0802 3.294e-4,-0.002 6.562e-4,-0.003 9.846e-4,-0.005 3.127e-4,-0.002 6.723e-4,-0.003 9.842e-4,-0.004 7.41e-5,-3.6e-4 -7.23e-5,-6.3e-4 0,-9.8e-4 0.00104,-0.005 0.00241,-0.01 0.00345,-0.0148 0.00296,-0.0148 0.0049,-0.0271 0.00689,-0.0399 0.00582,-0.0303 0.012276,-0.059 0.017718,-0.0901 5.561e-4,-0.003 7.358e-4,-0.006 9.842e-4,-0.008 0.00228,-0.0131 0.00517,-0.0252 0.00738,-0.0384 9.25e-5,-5.5e-4 -9.22e-5,-9.2e-4 0,-10e-4 1.81e-4,-9.9e-4 3.072e-4,-0.002 4.922e-4,-0.003 9.913e-4,-0.005 0.00208,-0.0104 0.00295,-0.0157 0.0022,-0.0135 0.00237,-0.0222 0.00443,-0.0354 0.013928,-0.091 0.024425,-0.17493 0.031499,-0.25248 7.094e-4,-0.006 0.00138,-0.0125 0.00197,-0.0187 7.862e-4,-0.008 0.00113,-0.0162 0.00197,-0.0246 0.00316,-0.0365 0.00824,-0.0768 0.00984,-0.11025 2.52e-5,-4.5e-4 -6.5e-5,-9.7e-4 0,-10e-4 6.42e-5,-5e-4 -9.91e-5,-10e-4 0,-10e-4 v -4.9e-4 -5e-4 l 4.921e-4,-4.9e-4 c 2.719e-4,-0.004 8.406e-4,-0.009 9.843e-4,-0.0133 1.199e-4,-0.003 -4.289e-4,-0.006 -4.922e-4,-0.009 5.25e-5,-10e-4 -4.88e-5,-0.002 0,-0.004 1.82e-5,-5.4e-4 -1.76e-5,-9.4e-4 0,-0.001 v -4.9e-4 -5e-4 c 1.16e-5,-3.5e-4 -1.13e-5,-6.3e-4 0,-9.8e-4 0.00163,-0.0505 0.0012,-0.0978 -9.842e-4,-0.14125 -0.00224,-0.0444 -0.00602,-0.0857 -0.012304,-0.12304 -5.6e-5,-3.3e-4 5.59e-5,-6.6e-4 0,-9.9e-4 -0.00148,-0.008 -0.00159,-0.0165 -0.00345,-0.0251 -0.00164,-0.008 -0.00372,-0.014 -0.00591,-0.0207 0,0 -4.922e-4,-4.9e-4 -4.922e-4,-4.9e-4 -0.00729,-0.031 -0.016442,-0.0591 -0.027069,-0.0847 v -5e-4 c -1.411e-4,-3.3e-4 -3.503e-4,-6.4e-4 -4.922e-4,-9.8e-4 -6.04e-5,-1.4e-4 5.65e-5,-3.5e-4 0,-4.9e-4 -4.835e-4,-0.001 -9.86e-4,-0.002 -0.00148,-0.003 -0.00344,-0.008 -0.00549,-0.0195 -0.00935,-0.0271 -0.00137,-0.003 -0.00304,-0.005 -0.00492,-0.007 -2.915e-4,-3.5e-4 -6.882e-4,-6.4e-4 -9.842e-4,-9.8e-4 -0.014249,-0.0261 -0.03101,-0.0484 -0.049709,-0.0679 -0.018617,-0.0194 -0.039924,-0.0351 -0.062997,-0.0482 -0.00513,-0.003 -0.00893,-0.008 -0.014273,-0.0103 -3.24e-4,-1.6e-4 -6.478e-4,-3.7e-4 -9.845e-4,-4.9e-4 h -5.443e-4 c -5.393e-4,-2.7e-4 -9.349e-4,-7.2e-4 -0.00148,-9.9e-4 -0.010859,-0.005 -0.022701,-0.007 -0.034452,-0.009 -0.00149,-2.7e-4 -0.00294,-6.9e-4 -0.00443,-9.8e-4 -0.00553,-10e-4 -0.010702,-0.003 -0.016242,-0.004 -0.00523,-9.7e-4 -0.010011,-0.004 -0.015257,-0.004 -0.00592,-0.001 -0.011245,-0.004 -0.017226,-0.005 -0.00187,-2.4e-4 -0.00366,-8.1e-4 -0.00541,-0.001 -3.647e-4,-4e-5 -6.691e-4,-2.8e-4 -9.843e-4,-4.9e-4 -3.153e-4,-2.1e-4 -6.411e-4,-3.7e-4 -9.843e-4,-4.9e-4 h -4.921e-4 c -6.799e-4,-7e-5 -0.00129,-4.3e-4 -0.00197,-4.9e-4 -5.07e-4,-1.2e-4 -9.505e-4,-4.5e-4 -0.00148,-5e-4 -0.015643,-0.001 -0.03277,0.002 -0.049709,0.005 -0.00621,10e-4 -0.011938,8e-4 -0.01821,0.002 -0.00253,4.8e-4 -0.00484,0 -0.00738,5e-4 -0.00374,7.2e-4 -0.00706,1.7e-4 -0.010828,9.8e-4 -0.015526,0.003 -0.031456,0.007 -0.04774,0.0118 -2.739e-4,9e-5 -7.104e-4,-8e-5 -9.845e-4,0 -0.00118,3.7e-4 -0.00226,6.1e-4 -0.00345,9.9e-4 -7.023e-4,2.1e-4 -0.00127,2.7e-4 -0.00197,4.9e-4 -0.0025,7.8e-4 -0.00487,0.002 -0.00738,0.002 -0.00459,0.002 -0.00959,0.005 -0.014273,0.006 -3.294e-4,1.3e-4 -6.585e-4,3.7e-4 -9.846e-4,4.9e-4 -0.00142,5.3e-4 -0.003,0.001 -0.00443,0.002 -0.028088,0.0106 -0.056531,0.0222 -0.087113,0.0389 -1.129e-4,6e-5 -3.793e-4,-6e-5 -4.922e-4,0 -0.00168,9.1e-4 -0.00323,10e-4 -0.00492,0.002 -2.958e-4,1.6e-4 -6.884e-4,3.3e-4 -9.845e-4,4.9e-4 -0.00399,0.002 -0.00774,0.004 -0.011812,0.006 -0.021105,0.0122 -0.04321,0.0279 -0.064966,0.0428 -0.00118,8.2e-4 -0.00226,0.002 -0.00345,0.002 -0.012014,0.008 -0.022534,0.0128 -0.034944,0.0217 -0.048541,0.0347 -0.088546,0.0614 -0.090066,0.0605 -7.875e-4,-0.002 0.00426,-0.0341 0.00935,-0.0665 3.75e-4,-0.002 1.122e-4,-0.003 4.922e-4,-0.005 0.0013,-0.008 9.52e-4,-0.008 0.00246,-0.0167 0.00127,-0.008 0.00166,-0.0124 0.00295,-0.0202 0.00491,-0.0325 0.00473,-0.0365 0.011812,-0.0792 0.00489,-0.0295 0.00299,-0.0309 0.00738,-0.0596 0.017714,-0.1192 0.039646,-0.2597 0.039865,-0.28792 v -4.9e-4 -9.8e-4 -0.0349 -9.8e-4 l -0.1063078,-10e-4 h -0.00591 l -0.020671,-4.9e-4 c -6.859e-4,-1e-5 -7.965e-4,10e-6 -0.00148,0 l -0.062505,-0.001 -0.017718,-4.9e-4 z m -3.9343735,0.39964 c 0.00395,7.5e-4 0.00748,0.004 0.01132,0.007 5.504e-4,0.002 4.543e-4,0.004 0,0.007 l -0.00246,-0.001 c -0.00101,-1.4e-4 -0.00657,-0.003 -0.00689,-0.003 -2.547e-4,2.6e-4 0.00135,0.009 0.00246,0.0153 -0.00234,10e-4 -0.00396,0.003 -0.00591,9.8e-4 -6.42e-5,-1.8e-4 6.2e-5,-3.1e-4 0,-4.9e-4 -0.00273,-0.008 -0.00347,-0.0164 -9.843e-4,-0.0216 l 4.922e-4,-5e-4 c 8.054e-4,-8.5e-4 8.816e-4,-0.003 0.00197,-0.003 z m 4.5328471,0.20769 c 0,0 4.921e-4,0 4.921e-4,0 8.553e-4,2.4e-4 0.0016,7.7e-4 0.00246,9.9e-4 2.935e-4,1.3e-4 6.927e-4,3.7e-4 9.842e-4,4.9e-4 0.00661,0.002 0.011933,0.008 0.017226,0.0133 0.00886,0.01 0.016176,0.0252 0.023132,0.0428 0.00257,0.008 0.00581,0.0114 0.00837,0.0197 0.00197,0.007 0.0035,0.0161 0.00541,0.0236 0.00404,0.0183 0.0075,0.0418 0.010336,0.0659 0.00153,0.0327 0.00212,0.0735 0.00197,0.14716 -3.6e-5,0.0185 -0.00133,0.0273 -0.00148,0.0438 -0.00183,0.0482 -0.00229,0.0964 -0.00591,0.14519 -0.00198,0.0256 -0.00205,0.0492 -0.00492,0.0758 -0.00171,0.0156 -0.00386,0.0317 -0.00591,0.0477 -0.00114,0.009 -0.00311,0.0227 -0.00443,0.0325 -0.00831,0.0625 -0.019937,0.13082 -0.032975,0.20278 -0.00384,0.0207 -0.00727,0.0411 -0.010828,0.0615 -0.00808,0.0427 -0.017075,0.0848 -0.026085,0.12648 -0.013852,0.0638 -0.028336,0.12552 -0.043803,0.18555 -2.036e-4,7.9e-4 -2.886e-4,0.002 -4.924e-4,0.002 -0.0013,0.005 -0.00263,0.01 -0.00394,0.0148 -0.013882,0.0528 -0.028315,0.10506 -0.043803,0.1565 -1.917e-4,6.5e-4 -3.003e-4,0.001 -4.921e-4,0.002 -0.014114,0.0464 -0.029151,0.0904 -0.044295,0.13387 -0.00609,0.0176 -0.012456,0.0346 -0.018702,0.0517 -0.016322,0.0445 -0.03289,0.088 -0.050201,0.12944 -0.016676,0.0396 -0.034118,0.0769 -0.051677,0.11369 -0.00627,0.0129 -0.012348,0.027 -0.018702,0.0394 -0.019156,0.0375 -0.03923,0.072 -0.059552,0.10582 -0.026336,0.044 -0.053175,0.0859 -0.080715,0.12353 -0.016723,0.0228 -0.03372,0.0446 -0.051185,0.0655 -0.033824,0.0402 -0.06864,0.0771 -0.1053235,0.10926 -3.364e-4,3e-4 -6.477e-4,6.9e-4 -9.843e-4,9.9e-4 -0.021156,0.0182 -0.042524,0.0358 -0.064966,0.0517 -0.011168,0.008 -0.022161,0.0154 -0.033467,0.0226 -0.00348,0.002 -0.00691,0.005 -0.010336,0.007 -9.785e-4,6.7e-4 -0.00198,0.001 -0.00295,0.002 -0.027661,0.0171 -0.056207,0.0328 -0.085637,0.0468 -0.00628,0.003 -0.012522,0.005 -0.018702,0.008 -0.00428,0.002 -0.00897,0.003 -0.013288,0.005 -0.047029,0.0198 -0.096203,0.0368 -0.1491263,0.0497 -0.0048,10e-4 -0.00937,0.003 -0.014273,0.004 -0.039556,0.008 -0.080635,0.0172 -0.085144,0.0148 -3.646e-4,-1.5e-4 -0.00102,-3.2e-4 -0.00148,-4.9e-4 -0.00306,-0.002 -0.00598,-0.003 -0.00345,-0.009 7.207e-4,-0.002 0.00174,-0.005 0.00246,-0.006 1.597e-4,-3.9e-4 3.321e-4,-0.001 4.921e-4,-0.001 3.165e-4,-7.8e-4 6.673e-4,-0.002 9.843e-4,-0.003 0.00424,-0.0123 0.0121,-0.0338 0.026577,-0.0714 0.0043,-0.0112 0.00927,-0.0281 0.014273,-0.0438 1.111e-4,-3.1e-4 3.807e-4,-6.8e-4 4.921e-4,-9.9e-4 0.028292,-0.0779 0.056958,-0.1625 0.087605,-0.26281 4.533e-4,-10e-4 0.00102,-0.003 0.00148,-0.005 v -4.9e-4 c 1.381e-4,-4.5e-4 3.553e-4,-0.001 4.921e-4,-0.001 1.822e-4,-6e-4 3.102e-4,-10e-4 4.924e-4,-0.002 2.822e-4,-9.3e-4 7.018e-4,-0.002 9.843e-4,-0.003 1.018e-4,-1.9e-4 3.933e-4,-2.9e-4 4.921e-4,-4.9e-4 4.28e-5,-1.4e-4 -4.28e-5,-3.5e-4 0,-4.9e-4 1.446e-4,-4.8e-4 3.475e-4,-0.001 4.921e-4,-0.001 0.00117,-0.003 0.00216,-0.007 0.00345,-0.0108 1.704e-4,-5.7e-4 3.218e-4,-10e-4 4.922e-4,-0.002 0.00138,-0.005 0.00293,-0.0106 0.00443,-0.0163 4.985e-4,-0.002 0.001,-0.004 0.00148,-0.005 0.059618,-0.19934 0.1226518,-0.4335 0.1889916,-0.70823 0.00197,-0.008 0.00343,-0.0129 0.00541,-0.0212 0.0021,-0.008 0.0042,-0.0165 0.0064,-0.0256 8.019e-4,-0.003 0.00165,-0.007 0.00246,-0.0108 0.023617,-0.0991 0.048115,-0.21126 0.072349,-0.31892 0.012428,-0.0536 0.024587,-0.10507 0.037405,-0.16389 0.015619,-0.0717 0.021449,-0.0976 0.031991,-0.14568 9.357e-4,-0.004 0.00152,-0.005 0.00246,-0.009 0.021409,-0.0991 0.038493,-0.16657 0.049709,-0.20376 0.00441,-0.0137 0.00997,-0.0384 0.014273,-0.0468 0.00175,-0.003 0.010132,-0.0106 0.012796,-0.0143 0.017865,-0.0248 0.057286,-0.0682 0.1122139,-0.12107 0.00342,-0.003 0.00491,-0.005 0.00837,-0.008 0.052132,-0.0497 0.1022758,-0.0921 0.1432202,-0.12451 0.044362,-0.0338 0.087657,-0.0646 0.1225495,-0.0832 0.015835,-0.008 0.031313,-0.0162 0.045279,-0.0222 0.016864,-0.007 0.032563,-0.0137 0.044787,-0.0172 0.01169,-0.003 0.022524,-0.005 0.031007,-0.003 z m -5.18496676,10e-4 c 0.004605,1.5e-4 0.008883,-1.3e-4 0.0142728,9.8e-4 0.002604,7.2e-4 0.005309,10e-4 0.007875,0.002 0.0107155,0.003 0.0237261,0.008 0.0364203,0.0138 0.0106648,0.004 0.0202126,0.007 0.0319908,0.0133 0.001371,6.5e-4 0.002449,0.001 0.003937,0.002 5.934e-4,3.2e-4 8.8095e-4,6.7e-4 0.001476,9.8e-4 0.006393,0.004 0.013179,0.009 0.0196866,0.0123 0.0250874,0.015 0.0520185,0.033 0.0812074,0.0551 0.00337,0.003 0.005945,0.004 0.009351,0.006 7.2442e-4,5.6e-4 0.001242,9.1e-4 0.001969,10e-4 0.004981,0.004 0.009455,0.008 0.0142728,0.0118 0.003938,0.003 0.007906,0.007 0.011812,0.0103 0.0614453,0.0514 0.1407239,0.12425 0.19489766,0.17866 8.549e-4,8.6e-4 0.00212,0.002 0.00295,0.003 0.016783,0.0171 0.031646,0.0328 0.043311,0.0458 0.013944,0.0184 0.025841,0.0368 0.035436,0.061 0.013151,0.031 0.025955,0.0757 0.05906,0.23132 0.018064,0.0815 0.028822,0.12966 0.055123,0.24904 0.00605,0.0275 0.011685,0.0458 0.017718,0.0728 0.013963,0.0632 0.027441,0.12813 0.041834,0.18948 0.00784,0.0346 0.015843,0.0748 0.023624,0.10779 0.010442,0.0442 0.022191,0.0835 0.032975,0.12747 4.473e-4,0.002 0.00103,0.004 0.00148,0.005 0.00726,0.0298 0.018309,0.0845 0.024116,0.10729 0.00645,0.0254 0.013549,0.048 0.020179,0.0733 0.00361,0.0141 0.00674,0.0231 0.010336,0.0369 9.87e-5,3.8e-4 3.755e-4,6.4e-4 4.921e-4,9.8e-4 0.068269,0.26546 0.1308174,0.48061 0.1865309,0.64523 0.00172,0.005 0.00322,0.0108 0.00492,0.0157 0.00333,0.011 0.00671,0.0226 0.00984,0.0315 0.00249,0.008 0.00547,0.0183 0.00738,0.0236 0.022671,0.0635 0.037451,0.10746 0.042326,0.12649 7.39e-5,2.9e-4 4.229e-4,0.002 4.921e-4,0.002 8.933e-4,0.004 0.00541,0.0156 0.00541,0.0172 v 5e-4 c -1.1e-5,5.8e-4 -4.557e-4,4.2e-4 -4.922e-4,9.8e-4 -1.741e-4,1.2e-4 -4.612e-4,1.6e-4 -4.922e-4,4.9e-4 -7.808e-4,0.002 -0.00189,0.003 -0.00246,0.005 -6.438e-4,10e-4 -8.31e-4,0.003 -0.00197,0.003 -7.717e-4,10e-5 -0.00139,3.4e-4 -0.00197,4.9e-4 -0.00349,2.8e-4 -0.00971,-4.3e-4 -0.015749,-9.8e-4 -3.852e-4,-7e-5 -0.00109,7e-5 -0.00148,0 -0.012519,-0.002 -0.029785,-0.008 -0.044787,-0.0113 -0.020429,-0.006 -0.040911,-0.0123 -0.063982,-0.0192 -0.031865,-0.009 -0.06341,-0.0192 -0.094004,-0.0305 -0.012926,-0.005 -0.026661,-0.01 -0.037897,-0.0143 -7.352e-4,-3.1e-4 -0.00175,-6.8e-4 -0.00246,-9.9e-4 -4.876e-4,-2.2e-4 -9.899e-4,-2.7e-4 -0.00148,-4.9e-4 -9.156e-4,-4.2e-4 -0.00155,-10e-4 -0.00246,-10e-4 -0.048786,-0.0225 -0.092978,-0.0487 -0.1328847,-0.0768 -0.00121,-8.5e-4 -0.00274,-0.002 -0.00394,-0.002 -0.034862,-0.0259 -0.068709,-0.0565 -0.1018783,-0.0886 -0.00734,-0.007 -0.014128,-0.0121 -0.021655,-0.0197 -0.03258,-0.0327 -0.056318,-0.0641 -0.081207,-0.096 -0.030217,-0.0386 -0.0600574,-0.078 -0.0880977,-0.12305 -0.004129,-0.007 -0.00812,-0.0138 -0.0123041,-0.0207 -0.009437,-0.0156 -0.0189951,-0.0334 -0.0285456,-0.0502 -0.0229811,-0.0411 -0.044587,-0.0866 -0.0659502,-0.13239 -0.0275239,-0.0598 -0.0543342,-0.12269 -0.0797308,-0.19096 -0.0138059,-0.0376 -0.0276644,-0.074 -0.0408498,-0.11468 -0.0105356,-0.0332 -0.0200843,-0.0678 -0.0300221,-0.10187 -0.0176293,-0.0589 -0.0341173,-0.12086 -0.0502009,-0.18457 -0.0151663,-0.06 -0.0291314,-0.11898 -0.0418341,-0.17718 -0.005243,-0.0247 -0.009852,-0.0494 -0.014765,-0.0743 -0.0129725,-0.0677 -0.0245726,-0.13487 -0.0349437,-0.20081 -0.006704,-0.0437 -0.0133058,-0.0877 -0.0191945,-0.1319 -0.00191,-0.0148 -0.004152,-0.0296 -0.005906,-0.0443 -1.8957e-4,-0.002 -3.0218e-4,-0.003 -4.9218e-4,-0.005 -0.007423,-0.0656 -0.0151784,-0.13162 -0.0177179,-0.19244 -3.9108e-4,-0.007 -6.4549e-4,-0.0148 -9.8434e-4,-0.0221 v -4.9e-4 c -0.001666,-0.0456 5.9976e-4,-0.0807 0.001969,-0.1191 8.6123e-4,-0.0206 0.001826,-0.0412 0.002953,-0.061 0.003241,-0.0381 0.006984,-0.0732 0.0123041,-0.0965 5.7957e-4,-0.003 8.9113e-4,-0.005 0.001476,-0.008 0.005238,-0.0187 0.0120459,-0.0326 0.0191945,-0.0453 0.006814,-0.0121 0.0139206,-0.0231 0.0216553,-0.0285 0.003091,-0.002 0.006088,-0.004 0.009351,-0.005 0.005881,-0.002 0.0137466,-9.3e-4 0.0211631,-4.9e-4 z m 4.42604726,0.28792 c 9.07e-5,-8e-5 4.027e-4,7e-5 4.921e-4,0 5.065e-4,0.002 7.149e-4,0.004 9.843e-4,0.006 -4.261e-4,0.002 -0.00103,0.004 -0.00148,0.005 -6.3e-4,1.8e-4 -3.026e-4,10e-4 -9.845e-4,10e-4 -5.415e-4,0 -7.197e-4,-5.9e-4 -9.843e-4,-9.8e-4 -1.988e-4,-5e-5 1.812e-4,-4.3e-4 0,-4.9e-4 -0.00106,-3.7e-4 -5.705e-4,-0.002 -9.843e-4,-0.002 6.449e-4,-0.003 0.00128,-0.006 0.00197,-0.007 v -4.9e-4 l 4.921e-4,-4.9e-4 c 0,0 4.924e-4,-4.9e-4 4.924e-4,-4.9e-4 z m -3.6823847,0.0103 c 1.523e-4,-6e-5 3.285e-4,4e-5 4.921e-4,0 9.268e-4,-6.5e-4 0.00174,-0.001 0.00394,4.9e-4 8.169e-4,0.004 0.00131,0.006 0.00197,0.009 -1.88e-4,5e-5 -2.955e-4,-3e-5 -4.921e-4,0 -0.00277,-9.7e-4 -0.00536,-0.002 -0.00689,-0.007 -1.048e-4,-5.5e-4 -3.894e-4,-9.8e-4 -4.921e-4,-10e-4 1.503e-4,-2.1e-4 3.114e-4,-3.7e-4 4.921e-4,-5e-4 2.958e-4,-2.6e-4 6.131e-4,-3.4e-4 9.844e-4,-4.9e-4 z m 3.6656509,0.0576 c 0.00232,0 0.00299,0.004 0.00443,0.006 7.92e-5,1.3e-4 -7.51e-5,3.6e-4 0,4.9e-4 -0.00125,0.006 -0.00437,0.0195 -0.00443,0.0207 -0.00298,0.002 -0.00416,-0.006 -0.00541,-0.0128 -7.13e-5,-1.4e-4 8.702e-4,-0.003 0.00148,-0.006 0.00143,-0.003 0.00172,-0.008 0.00394,-0.008 z m -3.6464565,0.0202 c 0.00163,0.007 0.00272,0.008 0.00443,0.0158 -0.00142,0.001 -0.00184,0.003 -0.00394,0.003 -5.26e-4,0 -4.865e-4,-10e-4 -9.843e-4,-10e-4 -9.036e-4,-0.006 -0.00133,-0.009 -0.00246,-0.0152 9.276e-4,-5.6e-4 0.00153,-0.002 0.00246,-0.002 2.631e-4,7e-5 2.203e-4,-6.2e-4 4.921e-4,-5e-4 z m 0.00738,0.0399 c 0.00132,0.003 0.00273,0.008 0.00443,0.0153 -0.00138,0.001 -0.00149,0.003 -0.00345,0.003 -5.26e-4,0 -4.864e-4,-10e-4 -9.843e-4,-10e-4 -8.995e-4,-0.005 -0.00212,-0.01 -0.00295,-0.0143 8.69e-5,-9e-5 -9.11e-5,-4.1e-4 0,-4.9e-4 0.00104,-9e-4 0.0015,-0.003 0.00295,-0.002 z m 0.00886,0.0344 c 5.583e-4,0 4.581e-4,8.8e-4 9.843e-4,9.9e-4 6.494e-4,0.003 0.00131,0.008 0.00246,0.0133 -0.00137,0.002 -0.00154,0.004 -0.00345,0.005 -5.582e-4,3.4e-4 -4.581e-4,-10e-4 -9.843e-4,-9.9e-4 -9.313e-4,-0.004 -0.00206,-0.009 -0.00295,-0.0128 0.00142,-0.002 0.00183,-0.006 0.00394,-0.006 z m 0.00787,0.0394 c 5.414e-4,0 4.729e-4,8.8e-4 9.843e-4,9.9e-4 6.126e-4,0.003 0.00172,0.008 0.00246,0.0113 -0.00136,0.001 -0.00155,0.003 -0.00345,0.003 -8.121e-4,0 -7.38e-4,-0.001 -0.00148,-0.001 -8.315e-4,-0.004 -0.00115,-0.007 -0.00197,-0.0108 0.00136,-0.001 0.00155,-0.003 0.00345,-0.003 z m 0.00738,0.0394 c 9.763e-4,0 0.0011,10e-4 0.00197,10e-4 8.29e-4,0.004 0.00116,0.007 0.00197,0.0108 -4.815e-4,5.6e-4 -8.396e-4,10e-4 -9.843e-4,0.002 -5.407e-4,-2.9e-4 -8.546e-4,-10e-4 -0.00148,-0.002 -8.757e-4,-0.002 -0.00189,-0.005 -0.00295,-0.008 6.556e-4,-10e-4 -7.643e-4,-0.004 0.00148,-0.004 z m 0.00837,0.0394 c 8.121e-4,0 7.379e-4,10e-4 0.00148,10e-4 6.059e-4,0.003 8.763e-4,0.005 0.00148,0.008 1.195e-4,7.9e-4 3.412e-4,0.002 4.921e-4,0.003 -0.00136,10e-4 -0.00155,0.003 -0.00345,0.003 -9.156e-4,-0.003 -0.002,-0.009 -0.00295,-0.0128 0.00126,-8.5e-4 0.00133,-0.003 0.00295,-0.003 z m 0.015257,0.0866 c 0.00125,0 0.00139,0.002 0.00246,0.002 1.148e-4,5e-5 -1.12e-4,4.4e-4 0,4.9e-4 5.79e-4,0.003 0.00108,0.007 0.00148,0.009 -0.00148,2.5e-4 -0.00288,3.9e-4 -0.00443,-4.9e-4 -3.936e-4,-4.7e-4 -5.842e-4,-4.7e-4 -9.843e-4,-9.8e-4 -3.802e-4,-0.002 -6.031e-4,-0.003 -9.843e-4,-0.004 -1.239e-4,-0.002 -7.123e-4,-0.005 0.00246,-0.005 z m 0.00935,0.0344 c 7.857e-4,0.004 0.00122,0.005 0.00197,0.009 -0.00131,9.8e-4 -0.00119,0.003 -0.00295,0.003 -5.413e-4,0 -4.729e-4,-8.8e-4 -9.843e-4,-9.8e-4 -0.00228,-7.7e-4 -0.00328,-0.003 -0.00246,-0.005 -1.6e-4,-7.4e-4 1.6e-4,-10e-4 0,-0.002 0.00152,-0.002 0.00284,-0.003 0.00443,-0.004 z m 0.00689,0.0404 c 4.301e-4,-2.6e-4 5.721e-4,6.5e-4 9.843e-4,4.9e-4 1.316e-4,-4e-5 -1.294e-4,5.3e-4 0,5e-4 7.181e-4,0.004 0.0031,0.0171 0.00295,0.0172 -0.00155,0.002 -0.00349,-0.002 -0.00541,-0.005 -2.953e-4,-10e-4 -1.779e-4,-10e-4 -4.922e-4,-0.002 -2.01e-4,-9.3e-4 -2.906e-4,-0.002 -4.922e-4,-0.002 1.789e-4,-0.003 -3.5e-4,-0.006 0.00246,-0.008 z m 0.00935,0.0305 c 6.939e-4,0.003 0.00128,0.006 0.00197,0.009 -0.00136,10e-4 -0.00155,0.003 -0.00345,0.003 -5.413e-4,0 -4.729e-4,-8.8e-4 -9.843e-4,-9.8e-4 -0.00281,-7.8e-4 -0.00409,-0.003 -0.00246,-0.006 l -4.922e-4,-4.9e-4 c 0.0017,-0.003 0.00359,-0.004 0.00541,-0.005 z m 0.0064,0.0325 c 5.674e-4,-3.5e-4 4.496e-4,0.001 9.843e-4,9.8e-4 5.203e-4,0.002 9.478e-4,0.004 0.00148,0.007 3.043e-4,10e-4 1.976e-4,0.002 4.922e-4,0.003 -1.008e-4,5e-4 4.45e-5,9.7e-4 0,0.001 -0.00121,10e-4 -0.00262,0.002 -0.00443,0 -3.669e-4,-6e-4 -6.269e-4,-0.001 -9.843e-4,-0.002 -1.724e-4,-7.3e-4 -3.273e-4,-0.001 -4.922e-4,-0.002 -2.438e-4,-0.003 -2.284e-4,-0.007 0.00295,-0.009 z m 0.00886,0.0384 c 6.472e-4,0.003 0.00136,0.006 0.00197,0.009 -0.00132,9.9e-4 -0.00187,0.003 -0.00345,0.003 -5.61e-4,-0.002 -0.00137,-0.007 -0.00197,-0.009 0.00126,-0.002 0.00221,-0.002 0.00345,-0.003 z m 0.0064,0.0364 c 6.985e-4,0 8.27e-4,8.3e-4 0.00148,9.8e-4 1.252e-4,3e-5 -1.229e-4,4.6e-4 0,4.9e-4 4.689e-4,0.002 10e-4,0.005 0.00148,0.008 4.8e-5,6.5e-4 5.612e-4,0.003 9.844e-4,0.005 -8.405e-4,-2.9e-4 -0.00186,-0.002 -0.00295,-0.003 -3.33e-4,-8.6e-4 -0.00196,-0.007 -0.00246,-0.008 v -4.9e-4 c 8.008e-4,-8.9e-4 -2.83e-4,-0.003 0.00148,-0.003 z m 0.5069308,1.69453 c 0.00704,0.003 0.028861,0.0382 0.044295,0.0654 0.00264,0.005 0.0053,0.009 0.00787,0.0138 0.00156,0.004 0.00277,0.007 0.00443,0.0113 -0.0016,7e-4 -0.00213,0.003 -0.00492,10e-4 -0.00253,-10e-4 -0.00864,-0.0115 -0.013781,-0.0182 -0.00892,-0.0145 -0.012959,-0.0235 -0.020179,-0.0359 -0.00782,-0.016 -0.017635,-0.0332 -0.017718,-0.0379 z m 2.4234244,0.006 c 0.00333,0 7.088e-4,0.006 -4.922e-4,0.0103 -0.00235,0.004 -0.00488,0.008 -0.00738,0.0123 -0.00327,0.003 -0.00646,0.009 -0.00886,0.009 -0.00237,0 6.75e-5,-0.005 0,-0.007 v -4.9e-4 l 4.921e-4,-4.9e-4 c 0.00351,-0.006 0.0073,-0.0118 0.010828,-0.0177 0.00193,-10e-4 0.00395,-0.005 0.00541,-0.005 z m -2.3244991,0.15307 c 0.00406,0.004 0.00976,0.0101 0.015257,0.0162 0.02174,0.0234 0.060605,0.0697 0.057583,0.0733 7.169e-4,9.1e-4 0.00174,0.002 0.00246,0.002 8.862e-4,0.001 0.00157,0.002 0.00246,0.003 9.883e-4,0.002 0.00249,0.003 0.00394,0.005 3.843e-4,5.4e-4 5.876e-4,9.3e-4 9.843e-4,10e-4 0.00324,0.002 0.00502,0.005 0.00345,0.007 -0.010089,-0.007 -0.040379,-0.0445 -0.065458,-0.0768 -0.00654,-0.008 -0.016537,-0.0206 -0.014765,-0.0207 0.00266,-10e-5 -0.00207,-0.005 -0.00591,-0.008 -8.5e-6,-10e-5 -4.532e-4,-3.5e-4 -4.921e-4,-4.9e-4 1.6e-5,-10e-4 -6.189e-4,-0.003 4.921e-4,-0.003 z m 2.1694669,0.0802 c 0.00106,5e-5 0.00184,2.4e-4 0.00246,9.8e-4 -0.0024,0.003 -0.00459,0.006 -0.00689,0.009 -0.00134,9.4e-4 -0.00238,0.002 -0.00345,0.003 -8.301e-4,-7.4e-4 -0.00295,6.1e-4 -0.00295,-9.9e-4 0.0034,-0.004 0.00687,-0.008 0.010828,-0.0118 z m -0.045771,0.0551 c 0.00233,-8.9e-4 0.00214,2.3e-4 0.00246,9.9e-4 9.2e-5,4.8e-4 4.436e-4,4.6e-4 4.922e-4,9.8e-4 -0.00178,0.002 -0.00345,0.004 -0.00738,0.007 -5.088e-4,3.8e-4 -7.439e-4,3.5e-4 -9.843e-4,5e-4 -0.00165,-3.8e-4 -0.00113,-0.002 -0.00148,-0.003 0.00149,-0.003 0.00409,-0.004 0.0064,-0.006 z m -1.8854871,0.14175 c 3.533e-4,-0.002 0.00269,-1e-4 0.00443,4.9e-4 7.334e-4,5.4e-4 0.00113,7.7e-4 0.00197,0.001 8.482e-4,9.7e-4 0.00158,0.002 0.00246,0.003 9.344e-4,9.5e-4 8.753e-4,0.001 0.00148,0.002 9.615e-4,0.002 0.00222,0.004 0.00197,0.005 -0.00375,-0.004 -0.00774,-0.008 -0.012304,-0.0123 z"
       id="path962"
       inkscape:connector-curvature="0" />
    <path
       style="fill:none;stroke:#000000;stroke-width:0.26458332px;stroke-linecap:butt;stroke-linejoin:miter;stroke-opacity:1"
       d="m 1.0951096,291.17021 c 0,0 0.5323109,-0.11106 2.1146304,-0.11693 1.5823195,-0.006 2.1109512,0.11693 2.1109512,0.11693"
       id="path1598"
       inkscape:connector-curvature="0"
       sodipodi:nodetypes="czc" />
    <path
       style="opacity:1;fill:#000000;fill-opacity:1;stroke:#000000;stroke-width:0.03340662;stroke-linejoin:miter;stroke-miterlimit:4;stroke-dasharray:none"
       d="M 12.255859 1.0351562 C 10.994754 1.0370008 9.7374267 1.0673144 8.5390625 1.1171875 C 8.5152825 1.1181772 8.4963755 1.1200852 8.4726562 1.1210938 C 7.5959621 1.1568597 6.8042912 1.2083111 6.0820312 1.2695312 C 5.936019 1.2814863 5.7514581 1.2859293 5.6113281 1.2988281 C 5.0953352 1.3463251 4.4347862 1.3847656 4.1425781 1.3847656 L 3.8867188 1.3847656 L 3.6035156 1.3808594 L 3.6113281 1.4570312 L 3.6113281 1.5058594 C 3.6113281 1.5170173 3.6315428 1.6492863 3.6347656 1.6816406 C 3.6506551 1.841155 3.6844688 2.1265845 3.7460938 2.5488281 C 3.820218 3.0567156 3.8722802 3.4792823 3.8632812 3.4882812 C 3.8542823 3.4972802 3.6557315 3.3787928 3.421875 3.2246094 C 3.3332606 3.1661852 3.2643458 3.1467701 3.1816406 3.0996094 C 3.0867096 3.0448747 2.9962 2.9795836 2.9199219 2.9433594 C 2.8513268 2.9107838 2.8165503 2.9019084 2.765625 2.8808594 C 2.7324459 2.868227 2.6962434 2.8522032 2.6640625 2.8417969 C 2.6171491 2.8262241 2.5495804 2.8081882 2.5039062 2.8007812 C 2.3712231 2.7720121 2.2439791 2.7555 2.1269531 2.7675781 C 2.0320878 2.7773691 1.945952 2.8015342 1.8632812 2.8300781 C 1.8312482 2.8402534 1.7933152 2.8603794 1.7636719 2.875 C 1.6621463 2.9228661 1.5728899 2.9880639 1.4921875 3.0683594 C 1.3195808 3.2400957 1.1892961 3.4811743 1.1113281 3.8027344 C 1.108788 3.8117493 1.1060272 3.8169913 1.1035156 3.8261719 C 1.1029782 3.8281363 1.1020943 3.8319988 1.1015625 3.8339844 C 1.0658349 3.9903708 1.0474132 4.1741908 1.0332031 4.3652344 C 1.0211362 4.5982386 1.0220608 4.8676099 1.0371094 5.1679688 C 1.0372609 5.1709924 1.0369552 5.1747055 1.0371094 5.1777344 C 1.040935 5.2486214 1.0332928 5.2989646 1.0390625 5.3730469 C 1.1243127 6.4676493 1.3403494 7.58435 1.6171875 8.6269531 C 1.6533475 8.7661362 1.6825308 8.9252034 1.7207031 9.0585938 C 1.7666165 9.2156593 1.8140903 9.366127 1.8632812 9.5175781 C 1.9070248 9.653928 1.94997 9.7921531 1.9960938 9.921875 C 2.0349412 10.030902 2.0767831 10.131389 2.1171875 10.236328 C 2.1723773 10.37871 2.2267851 10.52246 2.2851562 10.65625 C 2.373038 10.861176 2.4654862 11.050085 2.5585938 11.232422 C 2.5605829 11.236231 2.5624608 11.240339 2.5644531 11.244141 C 2.7118525 11.53169 2.862542 11.800149 3.0195312 12.019531 C 3.0806409 12.104928 3.1421621 12.163692 3.203125 12.242188 C 3.2679938 12.325869 3.3348621 12.405115 3.4023438 12.482422 C 3.6423274 12.761577 3.8924136 13.001615 4.1582031 13.193359 C 4.1749138 13.205901 4.1922196 13.222202 4.2089844 13.234375 C 4.3026385 13.299493 4.4062774 13.357779 4.5058594 13.414062 C 4.6509195 13.499324 4.8077042 13.576966 4.96875 13.642578 C 5.0452343 13.673505 5.1243096 13.706725 5.2050781 13.734375 C 5.3757674 13.791819 5.5688982 13.841611 5.7695312 13.886719 C 5.861457 13.908382 5.9355679 13.939744 6.0332031 13.958984 C 6.2932026 14.010223 6.4915864 14.058855 6.6054688 14.091797 C 6.6313305 14.100027 6.6997915 14.112592 6.7148438 14.119141 C 6.782352 14.147512 6.9711331 14.351907 7.1523438 14.591797 C 7.2963148 14.782389 7.5445793 15.044834 7.7851562 15.298828 C 7.8538366 15.371891 7.9006211 15.43497 7.9726562 15.507812 C 7.9986722 15.53412 8.0244759 15.553949 8.0507812 15.580078 C 8.3513643 15.880218 8.6641442 16.176891 8.9042969 16.367188 L 9.2675781 16.654297 L 9.2675781 18.140625 L 9.2675781 18.146484 L 9.2675781 19.636719 L 6.0917969 19.636719 L 6.0625 19.636719 L 2.9179688 19.636719 L 2.859375 19.636719 L 2.6953125 19.785156 C 2.5405942 19.926944 2.5312935 19.952105 2.5078125 20.283203 L 2.484375 20.630859 L 1.9296875 20.679688 C 1.5977625 20.709212 1.4143602 20.743631 1.28125 20.806641 C 1.2640955 20.81467 1.2455864 20.822678 1.2304688 20.832031 C 1.1944012 20.855519 1.152464 20.883166 1.1289062 20.917969 C 1.084277 20.976189 1.0575816 21.060071 1.0390625 21.158203 C 1.0388239 21.159946 1.0392965 21.162306 1.0390625 21.164062 C 1.0200081 21.268208 1.0167323 21.43083 1.015625 21.59375 C 1.0145562 21.634809 1.0107647 21.653913 1.0097656 21.699219 C 1.0080541 21.776833 1.0123653 21.7881 1.0117188 21.861328 C 1.0120435 21.877444 1.0113559 21.883796 1.0117188 21.900391 L 1.015625 22.074219 C 1.0172875 22.226362 1.0142368 22.455498 1.0214844 22.484375 C 1.0217935 22.485607 1.0231091 22.487048 1.0234375 22.488281 L 1.0253906 22.552734 L 1.1601562 22.685547 C 1.1604557 22.685831 1.1618092 22.685263 1.1621094 22.685547 C 1.1874642 22.709515 1.2124878 22.7236 1.2421875 22.744141 C 1.2921021 22.779389 1.3450894 22.807362 1.4042969 22.828125 C 1.4243257 22.835082 1.4407384 22.852855 1.4609375 22.857422 C 1.4612072 22.857483 1.4860121 22.857361 1.4863281 22.857422 C 1.488333 22.857835 1.4901806 22.858982 1.4921875 22.859375 C 1.7160626 22.903247 10.929098 22.903607 16.835938 22.882812 C 18.790249 22.878997 20.976976 22.874877 21.572266 22.863281 C 21.629816 22.861332 22.29491 22.861472 22.304688 22.859375 C 22.332028 22.853511 22.351715 22.835446 22.380859 22.826172 C 22.413176 22.820122 22.498233 22.81597 22.511719 22.808594 C 22.585514 22.768233 22.637758 22.730438 22.677734 22.685547 L 22.769531 22.605469 L 22.769531 22.205078 C 22.776628 22.076308 22.791016 22.009717 22.791016 21.78125 C 22.791016 21.365214 22.789177 21.186536 22.769531 21.082031 L 22.769531 21 L 22.710938 20.947266 C 22.700757 20.934741 22.69278 20.922322 22.679688 20.908203 C 22.635637 20.860696 22.582968 20.826581 22.519531 20.796875 C 22.518843 20.796552 22.518271 20.795243 22.517578 20.794922 C 22.511541 20.791819 22.50056 20.790004 22.494141 20.787109 C 22.456087 20.771291 22.414601 20.755984 22.363281 20.744141 C 22.347893 20.741041 22.302726 20.73918 22.285156 20.736328 C 22.143533 20.709447 21.979299 20.68786 21.697266 20.671875 L 21.167969 20.640625 L 21.154297 20.490234 L 21.154297 20.392578 C 21.152444 20.208414 21.11874 20.071693 21.068359 19.958984 C 21.056545 19.931497 21.031616 19.905539 21.015625 19.882812 C 20.985254 19.837889 20.963916 19.783135 20.921875 19.751953 C 20.90461 19.739149 20.873957 19.732233 20.851562 19.722656 C 20.85081 19.722335 20.850377 19.721022 20.849609 19.720703 C 20.847862 19.719641 20.843555 19.719786 20.841797 19.71875 C 20.824066 19.712079 20.808467 19.702553 20.779297 19.697266 C 20.629022 19.643963 20.187247 19.636868 17.837891 19.636719 C 17.82016 19.636718 17.82264 19.636719 17.804688 19.636719 L 17.751953 19.636719 L 14.814453 19.615234 L 14.802734 18.148438 L 14.794922 17.097656 L 14.794922 16.677734 L 15.310547 16.244141 C 15.912937 15.736471 16.526742 15.106577 16.908203 14.605469 C 17.055344 14.412177 17.225719 14.214306 17.287109 14.166016 C 17.360185 14.108536 17.587001 14.043446 17.941406 13.978516 C 18.136935 13.942695 18.298281 13.898171 18.466797 13.855469 C 18.511782 13.844069 18.564106 13.836236 18.607422 13.824219 C 18.610875 13.823237 18.61374 13.821301 18.617188 13.820312 C 18.785812 13.773223 18.938597 13.714816 19.085938 13.65625 C 19.112877 13.645256 19.141394 13.636484 19.167969 13.625 C 19.319756 13.560751 19.466728 13.483601 19.603516 13.402344 C 19.635768 13.383508 19.667526 13.363481 19.699219 13.34375 C 19.809741 13.273189 19.92312 13.200194 20.029297 13.115234 C 20.181581 12.997636 20.32696 12.867383 20.466797 12.724609 C 20.470413 12.720917 20.474907 12.718553 20.478516 12.714844 C 20.479136 12.714213 20.479848 12.713521 20.480469 12.712891 C 20.646269 12.54224 20.80223 12.349039 20.953125 12.140625 C 21.028153 12.038908 21.100555 11.927214 21.171875 11.816406 C 21.232852 11.720269 21.292629 11.618976 21.351562 11.515625 C 21.481754 11.288824 21.606401 11.042108 21.724609 10.779297 C 21.783507 10.648504 21.843944 10.522179 21.900391 10.380859 C 21.966318 10.216098 22.029424 10.039484 22.091797 9.8613281 C 22.128521 9.756513 22.162083 9.6492558 22.197266 9.5410156 C 22.25586 9.3605411 22.317429 9.197687 22.373047 9.0039062 C 22.440691 8.7682227 22.493486 8.5144789 22.552734 8.2675781 C 22.581415 8.1496187 22.61025 8.0386932 22.636719 7.9199219 C 22.745023 7.4280491 22.834262 6.9416183 22.902344 6.4648438 C 22.908221 6.4222065 22.918335 6.37831 22.923828 6.3359375 C 22.954645 6.1089181 22.970162 5.9114516 22.990234 5.6992188 C 22.995376 5.638206 23.001682 5.5756242 23.005859 5.515625 C 23.051543 4.9521774 23.065378 4.4461019 23.017578 4.0976562 C 23.015401 4.0817892 23.018014 4.0543398 23.015625 4.0390625 C 23.004484 3.9678185 22.981262 3.9083735 22.964844 3.8417969 C 22.953946 3.7984088 22.950722 3.7513586 22.935547 3.703125 C 22.930246 3.6862745 22.921578 3.6746024 22.916016 3.6582031 C 22.892945 3.5904761 22.866576 3.5298918 22.837891 3.46875 C 22.803808 3.3942014 22.767153 3.3242887 22.726562 3.2617188 C 22.704582 3.2285875 22.6821 3.1980474 22.658203 3.1679688 C 22.60442 3.0993166 22.545264 3.0408503 22.482422 2.9902344 C 22.452237 2.9656306 22.422678 2.9423635 22.390625 2.921875 C 22.331601 2.8848534 22.268632 2.8569056 22.203125 2.8339844 C 22.174859 2.824001 22.150343 2.8038917 22.121094 2.796875 C 22.105261 2.7930767 22.088188 2.796095 22.072266 2.7929688 C 22.027242 2.7841655 21.979165 2.7821618 21.931641 2.7792969 C 21.868484 2.7747978 21.804115 2.7713125 21.738281 2.7773438 C 21.698416 2.7813155 21.656517 2.7931171 21.615234 2.8007812 C 21.53697 2.8152271 21.457027 2.8302825 21.373047 2.859375 C 21.318749 2.8776245 21.261337 2.9057459 21.205078 2.9296875 C 21.137836 2.9591322 21.071851 2.9851218 21 3.0234375 C 20.917053 3.0670995 20.830615 3.1225597 20.744141 3.1777344 C 20.692952 3.2096522 20.647485 3.2316505 20.59375 3.2675781 L 20.183594 3.5410156 C 20.174853 3.5349777 20.215726 3.2576677 20.25 3.0195312 C 20.289887 2.7550391 20.303431 2.6301344 20.333984 2.4023438 C 20.373646 2.1321367 20.421273 1.8186263 20.431641 1.7050781 L 20.439453 1.6289062 C 20.439918 1.6200596 20.449215 1.5567437 20.449219 1.5507812 L 20.449219 1.5136719 L 20.460938 1.3847656 L 20.449219 1.3847656 L 20.046875 1.3789062 C 20.043258 1.3788669 20.038725 1.3789458 20.035156 1.3789062 C 19.600562 1.374096 19.518058 1.3690562 18.615234 1.2792969 C 18.526119 1.2704369 18.397329 1.2681427 18.304688 1.2597656 C 17.675284 1.2051218 16.981089 1.1603174 16.210938 1.1269531 C 14.972962 1.0701561 13.64762 1.0331206 12.255859 1.0351562 z M 12.308594 2.0371094 C 13.936229 2.0349255 15.492751 2.0476641 15.808594 2.0761719 C 15.892237 2.0837215 14.944237 2.0824284 14.740234 2.0878906 C 13.672934 2.0669836 12.540968 2.0515677 11.367188 2.0644531 C 8.9284524 2.0912248 8.1869808 2.1166715 6.5078125 2.2304688 C 5.7456113 2.2821228 5.7208252 2.284901 5.8886719 2.34375 C 6.3584673 2.5084657 7.0991214 2.6371622 7.8886719 2.734375 C 7.9390066 2.7416167 7.9814696 2.7530656 8.03125 2.7597656 C 8.0375766 2.7606171 8.1073958 2.760878 8.1152344 2.7617188 C 8.3343669 2.7856387 8.535558 2.8222954 8.7597656 2.8378906 C 9.075754 2.8598716 10.675697 2.8745106 12.316406 2.8691406 C 15.096854 2.8600335 15.354251 2.8513586 16.095703 2.7597656 C 17.031641 2.6441481 17.94363 2.4734296 18.232422 2.359375 L 18.347656 2.3144531 L 18.4375 2.2910156 L 18.410156 2.2871094 L 18.4375 2.2773438 L 18.240234 2.2519531 C 18.197702 2.246285 18.107444 2.2417985 18.058594 2.2363281 C 17.994416 2.2236873 17.904404 2.2118826 17.894531 2.2011719 C 17.87724 2.1824129 17.931632 2.1796675 18.013672 2.1953125 C 18.095211 2.2108629 18.237814 2.2244559 18.332031 2.2246094 C 18.332604 2.2246103 18.333415 2.2246094 18.333984 2.2246094 C 18.425585 2.2374988 18.466369 2.2499957 18.482422 2.2617188 C 18.485063 2.2945487 18.385701 2.3458883 18.162109 2.4160156 C 17.741986 2.5477833 17.007032 2.680078 15.986328 2.8046875 C 15.282544 2.8906071 14.959979 2.9001553 12.40625 2.9101562 C 10.867747 2.9161798 9.5177817 2.9129666 9.3886719 2.9042969 C 9.3853857 2.9041605 9.3821875 2.9044341 9.3789062 2.9042969 C 9.3767518 2.904142 9.3656076 2.9025108 9.3632812 2.9023438 C 9.2343777 2.8930863 8.852279 2.8671513 8.4941406 2.8417969 C 7.7181415 2.7868607 6.9029811 2.6610614 6.3261719 2.5175781 C 6.2884306 2.507558 6.250148 2.4987374 6.2128906 2.4882812 C 6.0528834 2.4451243 5.9050763 2.3998288 5.7988281 2.3554688 L 5.6660156 2.2988281 L 5.84375 2.2675781 C 6.0819499 2.2235494 7.1231284 2.1486447 8.3847656 2.0859375 C 8.9830016 2.0562033 10.680958 2.0392933 12.308594 2.0371094 z M 16.841797 2.1484375 C 16.905837 2.1437539 16.982219 2.1404177 17.035156 2.1484375 C 17.05668 2.1516998 16.998353 2.1516331 16.996094 2.1542969 C 16.950651 2.1518717 16.888737 2.1507818 16.841797 2.1484375 z M 17.566406 2.1933594 C 17.62138 2.1827882 17.699938 2.1822984 17.742188 2.1933594 C 17.768657 2.2002877 17.713081 2.2016956 17.679688 2.2050781 C 17.646836 2.202373 17.616479 2.1999075 17.582031 2.1972656 C 17.586009 2.1952886 17.555148 2.1955244 17.566406 2.1933594 z M 2.2539062 3.671875 C 2.2940876 3.6747046 2.3426369 3.687109 2.4023438 3.7050781 C 2.6645519 3.7839912 2.9586039 3.9904191 3.4316406 4.4101562 C 3.4716296 4.4466435 3.4972922 4.4645173 3.5371094 4.5019531 C 3.9532134 4.8806543 4.1408644 5.1060978 4.2207031 5.328125 C 4.2280811 5.3478788 4.2368601 5.3864991 4.2441406 5.4082031 C 4.2795658 5.5300282 4.4315537 6.1832528 4.6074219 6.9746094 C 4.8681539 8.1478285 5.1043834 9.1215821 5.3320312 9.9902344 C 5.578805 10.931867 5.8161902 11.747521 6.0625 12.476562 C 6.1701419 12.795168 6.2532688 13.048065 6.2578125 13.068359 C 6.2553866 13.084676 6.2160114 13.084581 6.1738281 13.082031 C 5.9742965 13.057733 5.37454 12.85578 5.0585938 12.691406 C 4.7177469 12.514078 4.4021888 12.253411 4.109375 11.919922 C 4.0890307 11.896289 4.0713383 11.88012 4.0507812 11.855469 C 3.1510043 10.787685 2.4877011 8.9747787 2.078125 6.4550781 C 1.941209 5.6127774 1.9042462 4.2411327 2.0117188 3.9375 C 2.0837858 3.7338951 2.1333623 3.6633863 2.2539062 3.671875 z M 21.767578 3.6894531 C 22.02767 3.65065 22.095838 3.9006826 22.119141 4.6132812 C 22.152852 5.6440915 21.995085 6.8137999 21.619141 8.3027344 C 21.305599 9.5445258 20.887172 10.577549 20.390625 11.353516 C 20.382953 11.365505 20.376851 11.380713 20.369141 11.392578 C 20.368667 11.393287 20.367661 11.393823 20.367188 11.394531 C 20.255078 11.566466 19.975805 11.895393 19.744141 12.126953 C 19.288375 12.582511 18.952278 12.79109 18.416016 12.953125 C 18.138839 13.036878 17.899952 13.083004 17.851562 13.072266 C 17.838404 13.067387 17.806441 13.071485 17.804688 13.060547 C 17.811503 13.032869 17.883763 12.827619 17.978516 12.5625 C 18.033319 12.409159 18.09897 12.146782 18.15625 11.970703 C 18.239725 11.711707 18.307738 11.519882 18.390625 11.240234 C 18.432772 11.098036 18.471707 10.931008 18.511719 10.791016 C 18.615562 10.421592 18.718419 10.04062 18.828125 9.6113281 C 18.928615 9.2163829 19.070282 8.6256812 19.191406 8.1054688 C 19.287221 7.6977617 19.375517 7.3777756 19.474609 6.9316406 C 19.63598 6.2051198 19.782209 5.5936333 19.833984 5.4101562 C 19.849709 5.3604038 19.862918 5.3043809 19.876953 5.2675781 C 19.925923 5.1380428 20.020697 5.0091807 20.195312 4.828125 C 20.222695 4.7994862 20.240665 4.7769767 20.271484 4.7460938 C 20.475644 4.5435344 20.684749 4.3561354 20.880859 4.1992188 C 20.88301 4.1974978 20.884571 4.1950732 20.886719 4.1933594 C 21.087666 4.0330135 21.276442 3.9067313 21.431641 3.8242188 C 21.433941 3.8229958 21.437167 3.8195619 21.439453 3.8183594 C 21.44278 3.8166091 21.443971 3.8161719 21.447266 3.8144531 C 21.577482 3.7465244 21.68302 3.7020683 21.767578 3.6894531 z M 7.5117188 13.423828 C 7.5218927 13.41365 7.5523441 13.454755 7.5800781 13.515625 C 7.6078091 13.576497 7.6221051 13.626953 7.6113281 13.626953 C 7.5805371 13.626953 7.4910778 13.444468 7.5117188 13.423828 z M 7.9316406 14.101562 L 8.0195312 14.175781 C 8.0655583 14.214756 8.0923201 14.241791 8.1035156 14.257812 C 8.1048735 14.260204 8.1041869 14.261334 8.1054688 14.263672 C 8.0985583 14.280595 8.071273 14.26387 8.0117188 14.195312 C 7.9794508 14.158117 7.9647758 14.145375 7.9316406 14.101562 z "
       transform="matrix(0.26458333,0,0,0.26458333,0,290.64998)"
       id="path1600" />
    <path
       style="opacity:1;fill:#000000;fill-opacity:1;stroke:#000000;stroke-width:0.00835165;stroke-linejoin:miter;stroke-miterlimit:4;stroke-dasharray:none"
       d=""
       id="path1612"
       inkscape:connector-curvature="0"
       transform="matrix(0.26458333,0,0,0.26458333,0,290.64998)" />
    <path
       style="opacity:1;fill:#000000;fill-opacity:1;stroke:#000000;stroke-width:0.00835165;stroke-linejoin:miter;stroke-miterlimit:4;stroke-dasharray:none"
       d=""
       id="path1614"
       inkscape:connector-curvature="0"
       transform="matrix(0.26458333,0,0,0.26458333,0,290.64998)" />
    <path
       style="opacity:1;fill:#000000;fill-opacity:1;stroke:#000000;stroke-width:0.00295276;stroke-linejoin:miter;stroke-miterlimit:4;stroke-dasharray:none"
       d="M 8.2584311,2.8045968 C 8.2509115,2.8038349 8.1981772,2.798744 8.1412436,2.7932838 7.5574405,2.7372943 6.9566835,2.643713 6.4752279,2.5337647 6.1846104,2.4673975 5.8915076,2.378911 5.7564779,2.3167772 l -0.023437,-0.010785 0.025391,-0.00433 0.025391,-0.00433 0.00298,0.010584 c 0.00565,0.020053 0.030794,0.031878 0.155221,0.073001 0.4000005,0.132199 1.0156992,0.2525583 1.8222656,0.3562242 0.06875,0.00884 0.1582499,0.022071 0.1988885,0.02941 0.052357,0.00946 0.085437,0.013344 0.1135169,0.013344 0.031947,0 0.2092686,0.019024 0.2325165,0.024945 0.00724,0.00184 -0.03206,0.00166 -0.050781,-2.371e-4 z"
       id="path1616"
       inkscape:connector-curvature="0"
       transform="matrix(0.26458333,0,0,0.26458333,0,290.64998)" />
    <path
       style="opacity:1;fill:#000000;fill-opacity:1;stroke:#000000;stroke-width:0.00295276;stroke-linejoin:miter;stroke-miterlimit:4;stroke-dasharray:none"
       d="m 7.655892,2.7382391 c 0.00269,-0.00108 0.00708,-0.00108 0.00977,0 0.00269,0.00108 4.883e-4,0.00197 -0.00488,0.00197 -0.00537,0 -0.00757,-8.866e-4 -0.00488,-0.00197 z"
       id="path1618"
       inkscape:connector-curvature="0"
       transform="matrix(0.26458333,0,0,0.26458333,0,290.64998)" />
    <path
       style="opacity:1;fill:#000000;fill-opacity:1;stroke:#000000;stroke-width:0.00295276;stroke-linejoin:miter;stroke-miterlimit:4;stroke-dasharray:none"
       d="m 9.8004932,2.8942452 c 0.00702,-8.694e-4 0.017568,-8.515e-4 0.023437,3.98e-5 0.00587,8.913e-4 1.254e-4,0.0016 -0.012765,0.00158 -0.012891,-2.19e-5 -0.017693,-7.511e-4 -0.010672,-0.00162 z"
       id="path1620"
       inkscape:connector-curvature="0"
       transform="matrix(0.26458333,0,0,0.26458333,0,290.64998)" />
    <path
       style="opacity:1;fill:#000000;fill-opacity:1;stroke:#000000;stroke-width:0.00295276;stroke-linejoin:miter;stroke-miterlimit:4;stroke-dasharray:none"
       d="m 9.5396811,2.8886316 c -0.093457,-0.00168 -0.1980469,-0.00565 -0.2324219,-0.00882 -0.062335,-0.00574 -0.062041,-0.00575 0.1113281,-0.00405 0.095605,9.401e-4 0.3680664,0.00362 0.6054687,0.00595 0.237402,0.00233 0.776172,0.00558 1.197266,0.00722 l 0.765625,0.00298 -1.138672,-1.14e-4 c -0.62627,-6.28e-5 -1.2151369,-0.00149 -1.3085939,-0.00317 z"
       id="path1622"
       inkscape:connector-curvature="0"
       transform="matrix(0.26458333,0,0,0.26458333,0,290.64998)" />
    <path
       style="opacity:1;fill:#000000;fill-opacity:1;stroke:#000000;stroke-width:0.00295276;stroke-linejoin:miter;stroke-miterlimit:4;stroke-dasharray:none"
       d="m 9.4635092,2.8848545 c -0.184344,-0.00498 -0.1517888,-0.00681 0.089844,-0.00505 0.1246093,9.082e-4 0.3979492,0.00277 0.6074218,0.00414 0.209472,0.00137 0.381617,0.00315 0.382543,0.00396 0.0032,0.00276 -0.9662261,1.84e-5 -1.0798088,-0.00305 z"
       id="path1624"
       inkscape:connector-curvature="0"
       transform="matrix(0.26458333,0,0,0.26458333,0,290.64998)" />
    <path
       style="opacity:1;fill:#000000;fill-opacity:1;stroke:#000000;stroke-width:0.00295276;stroke-linejoin:miter;stroke-miterlimit:4;stroke-dasharray:none"
       d="m 12.081318,2.884323 c 0.02095,-7.023e-4 0.05523,-7.023e-4 0.07617,0 0.02095,7.024e-4 0.0038,0.00128 -0.03809,0.00128 -0.0419,0 -0.05903,-5.747e-4 -0.03809,-0.00128 z"
       id="path1626"
       inkscape:connector-curvature="0"
       transform="matrix(0.26458333,0,0,0.26458333,0,290.64998)" />
    <path
       style="opacity:1;fill:#000000;fill-opacity:1;stroke:#000000;stroke-width:0.00295276;stroke-linejoin:miter;stroke-miterlimit:4;stroke-dasharray:none"
       d="M 14.570312 2.0644531 C 14.556884 2.065219 14.5669 2.0664062 14.59375 2.0664062 C 14.62056 2.0664062 14.632571 2.0652159 14.619141 2.0644531 C 14.603029 2.0641942 14.586424 2.0641942 14.570312 2.0644531 z M 14.732422 2.0683594 C 14.726452 2.0692615 14.729494 2.0702832 14.740234 2.0703125 C 14.75098 2.0703425 14.756753 2.0692866 14.751953 2.0683594 C 14.747153 2.0674322 14.738322 2.0674615 14.732422 2.0683594 z "
       transform="matrix(0.26458333,0,0,0.26458333,0,290.64998)"
       id="path865" />
    <rect
       style="opacity:1;fill:#000000;fill-opacity:1;stroke:#000000;stroke-width:0.2;stroke-linejoin:miter;stroke-miterlimit:4;stroke-dasharray:none"
       id="rect889"
       width="3.6932242"
       height="0.33321512"
       x="1.2704719"
       y="291.11258"
       rx="0.10583334"
       ry="0.037584852" />
  </g>
</svg>
